<?xml version="1.0" encoding="UTF-8"?><svg id="a" xmlns="http://www.w3.org/2000/svg" viewBox="0 0 512 512"><defs><style>.b{fill:#09f;}</style></defs><path class="b" d="M36,0v7.65h-9V0h9Z"/><path class="b" d="M497,0v7.65h-9V0h9Z"/><path class="b" d="M253,0v7.65h-8V0h8Z"/><path class="b" d="M444,0v7.65h-7V0h7Z"/><path class="b" d="M336,0v7.65h-7V0h7Z"/><path class="b" d="M297,0v7.65h-7V0h7Z"/><path class="b" d="M234,0v7.65h-7V0h7Z"/><path class="b" d="M214,0v7.65h-7V0h7Z"/><path class="b" d="M163,0v7.65h-7V0h7Z"/><path class="b" d="M132,0v7.65h-7V0h7Z"/><path class="b" d="M87,0v7.65h-7V0h7Z"/><path class="b" d="M258,512v-4.69h8.76c.08,1.56.16,3.12.24,4.69h-9Z"/><path class="b" d="M194,512v-4.68h7.76c.08,1.55.16,3.12.24,4.68h-8Z"/><path class="b" d="M131,512v-4.68h6.75c.08,1.55.17,3.11.25,4.68h-7Z"/><path class="b" d="M170,512v-4.68h6.75c.08,1.55.17,3.11.25,4.68h-7Z"/><path class="b" d="M227,512v-4.68h6.75c.08,1.55.17,3.11.25,4.68h-7Z"/><path class="b" d="M170.03,244.75v-7.35h6.62v8.37c-1.74.13-3.47.25-5.46.39-.13,2.17-.24,4.1-.38,6.43h-8.45v-7.38c2.52-.15,5.04-.31,7.68-.47Z"/><path class="b" d="M21.23,192.65v-6.37h14.53v6.37h-14.53Z"/><path class="b" d="M233.8,52.75h-6.43v-7.49c1.66-.15,3.4-.3,5.43-.49.13-1.85.26-3.59.4-5.53h6.42v6.46c-1.66.16-3.39.33-5.45.53-.12,2.17-.24,4.23-.37,6.5Z"/><path class="b" d="M233.2,449.24h6.44v7.53c-1.7.13-3.44.26-5.44.42-.13,1.79-.24,3.4-.39,5.4h-6.44v-6.34c1.7-.14,3.43-.28,5.45-.45.13-2.11.24-4.05.39-6.56Z"/><path class="b" d="M356.88,192.43v9.18h-9.53v-9.18h9.53Z"/><path class="b" d="M443.63,192.77h-12.34v-6.36h12.34v6.36Z"/><path class="b" d="M347.24,476.72v-8.35h9.43v8.35h-9.43Z"/><path class="b" d="M443.26,282.22h9.38v8.47h-9.38v-8.47Z"/><path class="b" d="M407.66,386.74h-9.4v-8.36h9.4v8.36Z"/><path class="b" d="M398.22,15.62V7.29h9.35v8.33h-9.35Z"/><path class="b" d="M80.71,201.75h-8.33v-9.41h8.33v9.41Z"/><path class="b" d="M266.8,96.42v9.25h-8.52v-9.25h8.52Z"/><path class="b" d="M162.25,476.71v-8.33h8.42v8.33h-8.42Z"/><path class="b" d="M266.61,290.79h-8.3v-8.53h8.3v8.53Z"/><path class="b" d="M35.76,333.37v8.35h-8.35v-8.35h8.35Z"/><path class="b" d="M125.75,333.29v8.33h-8.42v-8.33h8.42Z"/><path class="b" d="M72.43,468.12h8.18v8.53h-8.18v-8.53Z"/><path class="b" d="M213.29,52.25h8.33v8.42h-8.33v-8.42Z"/><path class="b" d="M503.6,156.81h-7.29v-9.53h7.29v9.53Z"/><path class="b" d="M443.19,252.6v-7.29h9.53v7.29h-9.53Z"/><path class="b" d="M194.25,96.21h7.41v9.5h-7.41v-9.5Z"/><path class="b" d="M407.74,405.79h-9.4v-7.49h9.4v7.49Z"/><path class="b" d="M143.34,423.26h7.41v8.35h-7.41v-8.35Z"/><path class="b" d="M200.25,476.7v-8.31h7.41v8.31h-7.41Z"/><path class="b" d="M258.35,392.25h8.38v7.36h-8.38v-7.36Z"/><path class="b" d="M35.59,399.81h-8.27v-7.53h8.27v7.53Z"/><path class="b" d="M258.64,431.77h-7.36v-8.36h7.36v8.36Z"/><path class="b" d="M170.72,148.76h-8.35v-7.44h8.35v7.44Z"/><path class="b" d="M170.78,200.27v7.38h-8.46v-7.38h8.46Z"/><path class="b" d="M194.11,245.67v-8.26h7.52v8.26h-7.52Z"/><path class="b" d="M80.62,456.78h-8.33v-7.53h8.33v7.53Z"/><path class="b" d="M251.29,333.24h7.34v8.43h-7.34v-8.43Z"/><path class="b" d="M150.71,290.76h-7.34v-8.43h7.34v8.43Z"/><path class="b" d="M143.36,468.23h7.36v8.35h-7.36v-8.35Z"/><path class="b" d="M266.75,45.29v7.33h-8.41v-7.33h8.41Z"/><path class="b" d="M200.25,290.65v-8.38h7.36v8.38h-7.36Z"/><path class="b" d="M311.76,398.29v7.34h-8.43v-7.34h8.43Z"/><path class="b" d="M347.24,321.65v-6.39h9.35v6.39h-9.35Z"/><path class="b" d="M407.69,321.74h-9.28v-6.39h9.28v6.39Z"/><path class="b" d="M356.74,21.3v6.32h-9.39v-6.32h9.39Z"/><path class="b" d="M398.1,276.68v-6.27h9.52v6.27h-9.52Z"/><path class="b" d="M131.2,105.76v-9.42h6.51v9.42h-6.51Z"/><path class="b" d="M176.77,96.37v9.35h-6.36v-9.35h6.36Z"/><path class="b" d="M227.37,96.22h6.34v9.54h-6.34v-9.54Z"/><path class="b" d="M398.26,117.7v-6.32h9.39v6.32h-9.39Z"/><path class="b" d="M452.69,231.74h-9.28v-6.39h9.28v6.39Z"/><path class="b" d="M347.1,219.6v-6.2h9.52v6.2h-9.52Z"/><path class="b" d="M452.66,135.74h-9.41v-6.37h9.41v6.37Z"/><path class="b" d="M356.76,366.35v6.39h-9.35v-6.39h9.35Z"/><path class="b" d="M509.72,201.77h-6.36v-9.44h6.36v9.44Z"/><path class="b" d="M347.1,392.68v-6.27h9.52v6.27h-9.52Z"/><path class="b" d="M488.74,192.31v9.28h-6.39v-9.28h6.39Z"/><path class="b" d="M392.7,201.74h-6.32v-9.39h6.32v9.39Z"/><path class="b" d="M398.27,417.23h9.37v6.46h-9.37v-6.46Z"/><path class="b" d="M227.25,192.21h6.41v9.49h-6.41v-9.49Z"/><path class="b" d="M137.65,201.76h-6.39v-9.35h6.39v9.35Z"/><path class="b" d="M117.77,192.27v9.37h-6.46v-9.37h6.46Z"/><path class="b" d="M92.26,201.66v-9.41h6.37v9.41h-6.37Z"/><path class="b" d="M356.69,437.74h-9.28v-6.39h9.28v6.39Z"/><path class="b" d="M356.8,60.42v6.25h-9.51v-6.25h9.51Z"/><path class="b" d="M92.63,156.78h-6.34v-9.54h6.34v9.54Z"/><path class="b" d="M452.9,66.4v6.2h-9.52v-6.2h9.52Z"/><path class="b" d="M443.34,156.26h9.41v6.37h-9.41v-6.37Z"/><path class="b" d="M452.8,476.42v6.25h-9.51v-6.25h9.51Z"/><path class="b" d="M111.8,147.24v9.42h-6.51v-9.42h6.51Z"/><path class="b" d="M131.61,156.81h-6.29v-9.54h6.29v9.54Z"/><path class="b" d="M380.74,147.31v9.28h-6.39v-9.28h6.39Z"/><path class="b" d="M335.2,156.76v-9.42h6.51v9.42h-6.51Z"/><path class="b" d="M311.25,147.21h6.41v9.49h-6.41v-9.49Z"/><path class="b" d="M245.7,156.74h-6.32v-9.39h6.32v9.39Z"/><path class="b" d="M213.74,147.34v9.41h-6.37v-9.41h6.37Z"/><path class="b" d="M188.77,147.27v9.37h-6.46v-9.37h6.46Z"/><path class="b" d="M149.28,494.24h7.34v7.43h-7.34v-7.43Z"/><path class="b" d="M458.9,45.32v7.27h-7.53v-7.27h7.53Z"/><path class="b" d="M245.11,450.58v-7.18h7.54v7.18h-7.54Z"/><path class="b" d="M200.24,501.72v-7.34h7.43v7.34h-7.43Z"/><path class="b" d="M150.78,443.26v7.39h-7.48v-7.39h7.48Z"/><path class="b" d="M201.9,200.32v7.27h-7.53v-7.27h7.53Z"/><path class="b" d="M503.76,347.28v7.34h-7.43v-7.34h7.43Z"/><path class="b" d="M303.59,501.81h-7.28v-7.54h7.28v7.54Z"/><path class="b" d="M399.65,354.75h-7.39v-7.36h7.39v7.36Z"/><path class="b" d="M458.58,501.89h-7.18v-7.54h7.18v7.54Z"/><path class="b" d="M251.24,252.72v-7.34h7.43v7.34h-7.43Z"/><path class="b" d="M201.89,341.42v7.18h-7.54v-7.18h7.54Z"/><path class="b" d="M35.9,264.4v6.2h-8.53v-6.2h8.53Z"/><path class="b" d="M303.2,276.61v-6.31h8.54v6.31h-8.54Z"/><path class="b" d="M488.27,501.23h8.36v6.46h-8.36v-6.46Z"/><path class="b" d="M117.1,270.6v-6.2h8.53v6.2h-8.53Z"/><path class="b" d="M496.66,276.74h-8.41v-6.37h8.41v6.37Z"/><path class="b" d="M21.42,282.2h6.25v8.51h-6.25v-8.51Z"/><path class="b" d="M35.4,282.1h6.2v8.53h-6.2v-8.53Z"/><path class="b" d="M60.33,282.26h6.42v8.35h-6.42v-8.35Z"/><path class="b" d="M105.23,290.73v-8.36h6.46v8.36h-6.46Z"/><path class="b" d="M170.26,290.66v-8.41h6.37v8.41h-6.37Z"/><path class="b" d="M284.57,290.79h-6.24v-8.5h6.24v8.5Z"/><path class="b" d="M362.23,290.63v-8.35h6.36v8.35h-6.36Z"/><path class="b" d="M213.25,84.7v-6.32h8.4v6.32h-8.4Z"/><path class="b" d="M380.33,282.26h6.42v8.35h-6.42v-8.35Z"/><path class="b" d="M437.6,290.9h-6.2v-8.53h6.2v8.53Z"/><path class="b" d="M258.2,33.58v-6.25h8.51v6.25h-8.51Z"/><path class="b" d="M213.21,258.57v-6.24h8.5v6.24h-8.5Z"/><path class="b" d="M470.42,282.2h6.25v8.51h-6.25v-8.51Z"/><path class="b" d="M311.66,296.74h-8.41v-6.37h8.41v6.37Z"/><path class="b" d="M221.73,494.77h-8.36v-6.46h8.36v6.46Z"/><path class="b" d="M476.28,237.24h6.36v8.44h-6.36v-8.44Z"/><path class="b" d="M386.28,237.24h6.36v8.44h-6.36v-8.44Z"/><path class="b" d="M245.8,237.25v8.42h-6.51v-8.42h6.51Z"/><path class="b" d="M72.58,245.8h-6.25v-8.51h6.25v8.51Z"/><path class="b" d="M27.23,315.64v-6.37h8.35v6.37h-8.35Z"/><path class="b" d="M303.23,321.73v-6.37h8.45v6.37h-8.45Z"/><path class="b" d="M303.31,476.26h8.29v6.39h-8.29v-6.39Z"/><path class="b" d="M488.69,476.89h-6.31v-8.54h6.31v8.54Z"/><path class="b" d="M470.61,476.8h-6.31v-8.54h6.31v8.54Z"/><path class="b" d="M425.7,476.75h-6.32v-8.4h6.32v8.4Z"/><path class="b" d="M27.27,27.23h8.36v6.46h-8.36v-6.46Z"/><path class="b" d="M213.25,231.2h8.42v6.51h-8.42v-6.51Z"/><path class="b" d="M239.23,476.63v-8.35h6.36v8.35h-6.36Z"/><path class="b" d="M488.26,96.67v-6.42h8.35v6.42h-8.35Z"/><path class="b" d="M488.21,333.57v-6.24h8.5v6.24h-8.5Z"/><path class="b" d="M303.1,72.6v-6.2h8.53v6.2h-8.53Z"/><path class="b" d="M194.74,468.34v8.41h-6.37v-8.41h6.37Z"/><path class="b" d="M15.36,333.23h6.37v8.35h-6.37v-8.35Z"/><path class="b" d="M9.36,7.23h6.37v8.35h-6.37V7.23Z"/><path class="b" d="M111.64,476.77h-6.37v-8.35h6.37v8.35Z"/><path class="b" d="M66.23,15.73V7.37h6.46v8.36h-6.46Z"/><path class="b" d="M54.43,468.21h6.24v8.5h-6.24v-8.5Z"/><path class="b" d="M9.23,476.63v-8.35h6.36v8.35h-6.36Z"/><path class="b" d="M221.63,468.77h-8.35v-6.36h8.35v6.36Z"/><path class="b" d="M98.74,333.31v8.29h-6.39v-8.29h6.39Z"/><path class="b" d="M258.4,456.21h8.29v6.53h-8.29v-6.53Z"/><path class="b" d="M170.73,231.77h-8.36v-6.46h8.36v6.46Z"/><path class="b" d="M162.6,341.9h-6.2v-8.53h6.2v8.53Z"/><path class="b" d="M213.74,333.34v8.41h-6.37v-8.41h6.37Z"/><path class="b" d="M227.77,333.37v8.35h-6.36v-8.35h6.36Z"/><path class="b" d="M496.63,219.77h-8.35v-6.36h8.35v6.36Z"/><path class="b" d="M278.8,333.25v8.42h-6.51v-8.42h6.51Z"/><path class="b" d="M296.77,333.27v8.36h-6.46v-8.36h6.46Z"/><path class="b" d="M407.28,333.24h6.36v8.44h-6.36v-8.44Z"/><path class="b" d="M425.23,341.73v-8.36h6.46v8.36h-6.46Z"/><path class="b" d="M182.74,7.34v8.41h-6.37V7.34h6.37Z"/><path class="b" d="M443.64,341.77h-6.37v-8.35h6.37v8.35Z"/><path class="b" d="M503.21,341.6v-8.29h6.53v8.29h-6.53Z"/><path class="b" d="M311.26,15.66V7.25h6.37v8.41h-6.37Z"/><path class="b" d="M117.25,213.2h8.42v6.51h-8.42v-6.51Z"/><path class="b" d="M72.31,39.26h8.29v6.39h-8.29v-6.39Z"/><path class="b" d="M72.24,366.72v-6.36h8.44v6.36h-8.44Z"/><path class="b" d="M162.24,366.72v-6.36h8.44v6.36h-8.44Z"/><path class="b" d="M362.64,15.77h-6.37V7.41h6.37v8.35Z"/><path class="b" d="M221.77,360.36v6.37h-8.35v-6.37h8.35Z"/><path class="b" d="M35.6,372.79h-8.29v-6.53h8.29v6.53Z"/><path class="b" d="M162.31,123.26h8.29v6.39h-8.29v-6.39Z"/><path class="b" d="M386.27,7.23h6.37v8.45h-6.37V7.23Z"/><path class="b" d="M117.23,378.64v-6.37h8.35v6.37h-8.35Z"/><path class="b" d="M15.8,378.25v8.42h-6.51v-8.42h6.51Z"/><path class="b" d="M111.61,386.8h-6.31v-8.54h6.31v8.54Z"/><path class="b" d="M221.8,186.42v6.25h-8.51v-6.25h8.51Z"/><path class="b" d="M258.21,443.57v-6.24h8.5v6.24h-8.5Z"/><path class="b" d="M143.57,386.79h-6.24v-8.5h6.24v8.5Z"/><path class="b" d="M188.69,386.89h-6.31v-8.54h6.31v8.54Z"/><path class="b" d="M27.4,437.21h8.29v6.53h-8.29v-6.53Z"/><path class="b" d="M227.23,386.73v-8.36h6.46v8.36h-6.46Z"/><path class="b" d="M425.7,15.75h-6.32V7.35h6.32v8.4Z"/><path class="b" d="M272.26,386.69v-8.29h6.39v8.29h-6.39Z"/><path class="b" d="M374.72,431.76h-6.36v-8.44h6.36v8.44Z"/><path class="b" d="M284.58,431.8h-6.25v-8.51h6.25v8.51Z"/><path class="b" d="M476.2,15.75V7.34h6.51v8.42h-6.51Z"/><path class="b" d="M368.33,378.26h6.42v8.35h-6.42v-8.35Z"/><path class="b" d="M188.28,423.24h6.36v8.44h-6.36v-8.44Z"/><path class="b" d="M105.28,423.24h6.36v8.44h-6.36v-8.44Z"/><path class="b" d="M258.24,186.72v-6.36h8.44v6.36h-8.44Z"/><path class="b" d="M496.77,411.27v6.37h-8.45v-6.37h8.45Z"/><path class="b" d="M392.61,386.8h-6.31v-8.54h6.31v8.54Z"/><path class="b" d="M425.79,378.4v8.29h-6.53v-8.29h6.53Z"/><path class="b" d="M27.23,417.73v-6.37h8.45v6.37h-8.45Z"/><path class="b" d="M72.27,386.23h8.36v6.46h-8.36v-6.46Z"/><path class="b" d="M170.69,168.74h-8.29v-6.39h8.29v6.39Z"/><path class="b" d="M258.26,162.67v-6.42h8.35v6.42h-8.35Z"/><path class="b" d="M380.6,60.9h-6.2v-8.53h6.2v8.53Z"/><path class="b" d="M162.25,66.7v-6.32h8.4v6.32h-8.4Z"/><path class="b" d="M80.77,60.27v6.37h-8.45v-6.37h8.45Z"/><path class="b" d="M150.67,411.88h-7.24v-6.51h7.24v6.51Z"/><path class="b" d="M143.3,60.26h7.3v6.4h-7.3v-6.4Z"/><path class="b" d="M470.6,405.81h-6.28v-7.54h6.28v7.54Z"/><path class="b" d="M419.26,398.22h6.39v7.47h-6.39v-7.47Z"/><path class="b" d="M194.25,405.21h7.41v6.5h-7.41v-6.5Z"/><path class="b" d="M386.35,45.25h6.39v7.36h-6.39v-7.36Z"/><path class="b" d="M392.68,405.9h-6.28v-7.54h6.28v7.54Z"/><path class="b" d="M374.26,405.7v-7.3h6.4v7.3h-6.4Z"/><path class="b" d="M143.25,156.21h7.41v6.5h-7.41v-6.5Z"/><path class="b" d="M200.19,66.6v-6.28h7.54v6.28h-7.54Z"/><path class="b" d="M392.1,162.59v-6.19h7.54v6.19h-7.54Z"/><path class="b" d="M329.23,52.72v-7.36h6.45v7.36h-6.45Z"/><path class="b" d="M341.6,405.81h-6.28v-7.54h6.28v7.54Z"/><path class="b" d="M482.6,148.81h-6.28v-7.54h6.28v7.54Z"/><path class="b" d="M258.78,15.38v6.34h-7.54v-6.34h7.54Z"/><path class="b" d="M278.35,398.25h6.39v7.36h-6.39v-7.36Z"/><path class="b" d="M303.75,162.35v6.39h-7.36v-6.39h7.36Z"/><path class="b" d="M182.79,398.25v7.41h-6.5v-7.41h6.5Z"/><path class="b" d="M54.12,405.57v-7.18h6.54v7.18h-6.54Z"/><path class="b" d="M15.77,398.28v7.36h-6.45v-7.36h6.45Z"/><path class="b" d="M503.4,392.19h6.28v7.54h-6.28v-7.54Z"/><path class="b" d="M443.6,399.81h-6.28v-7.54h6.28v7.54Z"/><path class="b" d="M194.24,174.71v-6.34h7.42v6.34h-7.42Z"/><path class="b" d="M245.71,399.76h-6.34v-7.42h6.34v7.42Z"/><path class="b" d="M233.59,399.9h-6.19v-7.54h6.19v7.54Z"/><path class="b" d="M207.23,399.72v-7.36h6.45v7.36h-6.45Z"/><path class="b" d="M125.23,399.72v-7.36h6.45v7.36h-6.45Z"/><path class="b" d="M92.41,392.1h6.19v7.54h-6.19v-7.54Z"/><path class="b" d="M451.25,392.71v-6.34h7.42v6.34h-7.42Z"/><path class="b" d="M156.67,180.74h-7.42v-6.37h7.42v6.37Z"/><path class="b" d="M47.1,27.68v-6.28h7.54v6.28h-7.54Z"/><path class="b" d="M194.28,386.23h7.36v6.45h-7.36v-6.45Z"/><path class="b" d="M407.29,141.24h6.34v7.42h-6.34v-7.42Z"/><path class="b" d="M66.23,148.63v-7.36h6.36v7.36h-6.36Z"/><path class="b" d="M451.25,174.21h7.41v6.5h-7.41v-6.5Z"/><path class="b" d="M252.7,417.74h-7.3v-6.4h7.3v6.4Z"/><path class="b" d="M496.33,174.26h7.42v6.37h-7.42v-6.37Z"/><path class="b" d="M200.24,186.71v-6.34h7.42v6.34h-7.42Z"/><path class="b" d="M143.21,21.62v-6.34h7.54v6.34h-7.54Z"/><path class="b" d="M150.72,141.77h-7.36v-6.45h7.36v6.45Z"/><path class="b" d="M54.63,437.77h-7.36v-6.36h7.36v6.36Z"/><path class="b" d="M182.74,45.3v7.3h-6.4v-7.3h6.4Z"/><path class="b" d="M503.63,437.77h-7.36v-6.36h7.36v6.36Z"/><path class="b" d="M252.67,135.74h-7.42v-6.37h7.42v6.37Z"/><path class="b" d="M207.75,135.79h-7.41v-6.5h7.41v6.5Z"/><path class="b" d="M296.1,443.68v-6.28h7.54v6.28h-7.54Z"/><path class="b" d="M496.1,129.68v-6.28h7.54v6.28h-7.54Z"/><path class="b" d="M303.6,192.8h-7.3v-6.54h7.3v6.54Z"/><path class="b" d="M399.75,443.79h-7.41v-6.5h7.41v6.5Z"/><path class="b" d="M131.65,52.75h-6.39v-7.36h6.39v7.36Z"/><path class="b" d="M503.75,378.79h-7.41v-6.5h7.41v6.5Z"/><path class="b" d="M41.41,45.1h6.19v7.54h-6.19v-7.54Z"/><path class="b" d="M258.6,378.8h-7.3v-6.54h7.3v6.54Z"/><path class="b" d="M111.62,450.78h-6.34v-7.54h6.34v7.54Z"/><path class="b" d="M194.28,366.23h7.36v6.45h-7.36v-6.45Z"/><path class="b" d="M156.63,129.77h-7.36v-6.36h7.36v6.36Z"/><path class="b" d="M451.25,366.71v-6.34h7.42v6.34h-7.42Z"/><path class="b" d="M188.12,450.57v-7.18h6.54v7.18h-6.54Z"/><path class="b" d="M341.29,443.25h6.34v7.42h-6.34v-7.42Z"/><path class="b" d="M149.25,360.21h7.41v6.5h-7.41v-6.5Z"/><path class="b" d="M98.28,360.23h7.36v6.45h-7.36v-6.45Z"/><path class="b" d="M9.9,123.41v6.19H2.36v-6.19h7.54Z"/><path class="b" d="M380.8,443.4v7.3h-6.54v-7.3h6.54Z"/><path class="b" d="M239.4,200.19h6.28v7.53h-6.28v-7.53Z"/><path class="b" d="M335.77,200.37v7.36h-6.36v-7.36h6.36Z"/><path class="b" d="M380.59,207.81h-6.28v-7.53h6.28v7.53Z"/><path class="b" d="M258.72,360.77h-7.36v-6.45h7.36v6.45Z"/><path class="b" d="M380.79,347.25v7.41h-6.5v-7.41h6.5Z"/><path class="b" d="M258.76,207.29v6.34h-7.42v-6.34h7.42Z"/><path class="b" d="M362.59,354.9h-6.19v-7.54h6.19v7.54Z"/><path class="b" d="M335.77,347.28v7.36h-6.45v-7.36h6.45Z"/><path class="b" d="M111.74,347.3v7.3h-6.4v-7.3h6.4Z"/><path class="b" d="M86.32,347.1h6.28v7.54h-6.28v-7.54Z"/><path class="b" d="M458.7,213.74h-7.3v-6.4h7.3v6.4Z"/><path class="b" d="M476.79,341.25v7.41h-6.5v-7.41h6.5Z"/><path class="b" d="M317.62,348.78h-6.34v-7.54h6.34v7.54Z"/><path class="b" d="M60.35,341.25h6.39v7.36h-6.39v-7.36Z"/><path class="b" d="M98.3,213.26h7.3v6.4h-7.3v-6.4Z"/><path class="b" d="M15.35,449.25h6.39v7.36h-6.39v-7.36Z"/><path class="b" d="M143.24,219.71v-6.34h7.42v6.34h-7.42Z"/><path class="b" d="M162.77,449.28v7.36h-6.45v-7.36h6.45Z"/><path class="b" d="M213.62,456.79h-6.33v-7.54h6.33v7.54Z"/><path class="b" d="M278.8,449.4v7.3h-6.54v-7.3h6.54Z"/><path class="b" d="M296.74,456.78h-6.39v-7.47h6.39v7.47Z"/><path class="b" d="M317.88,449.43v7.18h-6.54v-7.18h6.54Z"/><path class="b" d="M368.77,449.37v7.36h-6.36v-7.36h6.36Z"/><path class="b" d="M150.6,117.8h-7.3v-6.54h7.3v6.54Z"/><path class="b" d="M413.59,456.9h-6.19v-7.54h6.19v7.54Z"/><path class="b" d="M425.41,449.1h6.19v7.54h-6.19v-7.54Z"/><path class="b" d="M451.25,111.71v-6.34h7.42v6.34h-7.42Z"/><path class="b" d="M488.62,456.79h-6.33v-7.54h6.33v7.54Z"/><path class="b" d="M458.67,462.74h-7.42v-6.37h7.42v6.37Z"/><path class="b" d="M258.78,225.38v6.34h-7.54v-6.34h7.54Z"/><path class="b" d="M503.57,27.88h-7.18v-6.54h7.18v6.54Z"/><path class="b" d="M150.9,327.41v6.19h-7.54v-6.19h7.54Z"/><path class="b" d="M47.25,327.71v-6.34h7.42v6.34h-7.42Z"/><path class="b" d="M392.25,90.21h7.41v6.5h-7.41v-6.5Z"/><path class="b" d="M458.6,90.8h-7.3v-6.54h7.3v6.54Z"/><path class="b" d="M201.6,321.8h-7.3v-6.54h7.3v6.54Z"/><path class="b" d="M496.1,315.59v-6.19h7.54v6.19h-7.54Z"/><path class="b" d="M149.1,315.59v-6.19h7.54v6.19h-7.54Z"/><path class="b" d="M399.6,482.8h-7.3v-6.54h7.3v6.54Z"/><path class="b" d="M458.57,309.88h-7.18v-6.54h7.18v6.54Z"/><path class="b" d="M258.63,309.77h-7.36v-6.36h7.36v6.36Z"/><path class="b" d="M200.4,303.2h7.3v6.54h-7.3v-6.54Z"/><path class="b" d="M245.28,33.23h7.36v6.45h-7.36v-6.45Z"/><path class="b" d="M296.37,84.23h7.36v6.36h-7.36v-6.36Z"/><path class="b" d="M503.75,482.29v6.34h-7.42v-6.34h7.42Z"/><path class="b" d="M200.28,84.23h7.36v6.45h-7.36v-6.45Z"/><path class="b" d="M41.8,245.4v7.3h-6.54v-7.3h6.54Z"/><path class="b" d="M137.68,252.9h-6.28v-7.54h6.28v7.54Z"/><path class="b" d="M188.74,245.33v7.42h-6.37v-7.42h6.37Z"/><path class="b" d="M188.74,296.3v7.3h-6.4v-7.3h6.4Z"/><path class="b" d="M362.37,245.22h6.34v7.54h-6.34v-7.54Z"/><path class="b" d="M143.25,33.21h7.41v6.5h-7.41v-6.5Z"/><path class="b" d="M496.25,290.21h7.41v6.5h-7.41v-6.5Z"/><path class="b" d="M156.57,90.88h-7.18v-6.54h7.18v6.54Z"/><path class="b" d="M47.62,501.78h-6.34v-7.54h6.34v7.54Z"/><path class="b" d="M66.68,501.9h-6.28v-7.54h6.28v7.54Z"/><path class="b" d="M111.74,494.33v7.42h-6.37v-7.42h6.37Z"/><path class="b" d="M182.29,494.24h6.34v7.42h-6.34v-7.42Z"/><path class="b" d="M503.6,78.8h-7.3v-6.54h7.3v6.54Z"/><path class="b" d="M296.22,33.74v-6.39h7.47v6.39h-7.47Z"/><path class="b" d="M392.21,33.62v-6.33h7.54v6.33h-7.54Z"/><path class="b" d="M239.12,501.57v-7.18h6.54v7.18h-6.54Z"/><path class="b" d="M201.9,258.41v6.19h-7.54v-6.19h7.54Z"/><path class="b" d="M317.4,494.19h6.28v7.54h-6.28v-7.54Z"/><path class="b" d="M368.23,501.72v-7.36h6.45v7.36h-6.45Z"/><path class="b" d="M476.71,501.75h-6.34v-7.42h6.34v7.42Z"/><path class="b" d="M392.1,72.68v-6.28h7.54v6.28h-7.54Z"/><path class="b" d="M98.19,270.6v-6.28h7.54v6.28h-7.54Z"/><path class="b" d="M392.43,501.12h7.18v6.54h-7.18v-6.54Z"/><path class="b" d="M239.6,303.81h-6.28v-7.54h6.28v7.54Z"/><path class="b" d="M54.72,276.77h-7.36v-6.45h7.36v6.45Z"/><path class="b" d="M272.72,270.76h-6.35v-6.44h6.35v6.44Z"/><path class="b" d="M368.64,270.77h-6.36v-6.36h6.36v6.36Z"/><path class="b" d="M425.25,270.7v-6.32h6.41v6.32h-6.41Z"/><path class="b" d="M437.36,264.23h6.36v6.36h-6.36v-6.36Z"/><path class="b" d="M213.89,264.33v6.25h-6.52v-6.25h6.52Z"/><path class="b" d="M86.58,276.89h-6.19v-6.54h6.19v6.54Z"/><path class="b" d="M156.24,276.72v-6.35h6.44v6.35h-6.44Z"/><path class="b" d="M182.42,270.11h6.19v6.54h-6.19v-6.54Z"/><path class="b" d="M221.28,270.24h6.35v6.44h-6.35v-6.44Z"/><path class="b" d="M290.75,276.79h-6.41v-6.5h6.41v6.5Z"/><path class="b" d="M137.33,264.11h6.25v6.52h-6.25v-6.52Z"/><path class="b" d="M323.25,276.7v-6.32h6.41v6.32h-6.41Z"/><path class="b" d="M341.42,270.11h6.19v6.54h-6.19v-6.54Z"/><path class="b" d="M111.75,33.3v6.32h-6.41v-6.32h6.41Z"/><path class="b" d="M458.11,276.58v-6.19h6.54v6.19h-6.54Z"/><path class="b" d="M15.11,270.58v-6.19h6.54v6.19h-6.54Z"/><path class="b" d="M239.8,276.39v6.3h-6.54v-6.3h6.54Z"/><path class="b" d="M476.2,264.61v-6.3h6.54v6.3h-6.54Z"/><path class="b" d="M392.8,258.39v6.3h-6.54v-6.3h6.54Z"/><path class="b" d="M239.42,258.11h6.19v6.54h-6.19v-6.54Z"/><path class="b" d="M170.25,264.7v-6.32h6.41v6.32h-6.41Z"/><path class="b" d="M443.72,33.76h-6.35v-6.44h6.35v6.44Z"/><path class="b" d="M72.64,264.77h-6.36v-6.36h6.36v6.36Z"/><path class="b" d="M503.24,258.72v-6.35h6.44v6.35h-6.44Z"/><path class="b" d="M464.24,258.72v-6.35h6.44v6.35h-6.44Z"/><path class="b" d="M413.79,252.25v6.41h-6.5v-6.41h6.5Z"/><path class="b" d="M341.75,258.79h-6.41v-6.5h6.41v6.5Z"/><path class="b" d="M317.7,258.75h-6.32v-6.41h6.32v6.41Z"/><path class="b" d="M290.11,258.67v-6.25h6.52v6.25h-6.52Z"/><path class="b" d="M278.11,258.67v-6.25h6.52v6.25h-6.52Z"/><path class="b" d="M111.28,252.24h6.35v6.44h-6.35v-6.44Z"/><path class="b" d="M86.23,296.64v-6.36h6.36v6.36h-6.36Z"/><path class="b" d="M131.76,290.28v6.35h-6.44v-6.35h6.44Z"/><path class="b" d="M156.23,296.64v-6.36h6.36v6.36h-6.36Z"/><path class="b" d="M98.8,252.39v6.3h-6.54v-6.3h6.54Z"/><path class="b" d="M329.64,296.77h-6.36v-6.36h6.36v6.36Z"/><path class="b" d="M341.25,296.7v-6.32h6.41v6.32h-6.41Z"/><path class="b" d="M413.64,296.77h-6.36v-6.36h6.36v6.36Z"/><path class="b" d="M54.3,252.25h6.32v6.41h-6.32v-6.41Z"/><path class="b" d="M194.67,39.89h-6.25v-6.52h6.25v6.52Z"/><path class="b" d="M368.39,66.2h6.3v6.54h-6.3v-6.54Z"/><path class="b" d="M9.39,303.2h6.3v6.54h-6.3v-6.54Z"/><path class="b" d="M41.42,303.11h6.19v6.54h-6.19v-6.54Z"/><path class="b" d="M72.76,303.28v6.35h-6.44v-6.35h6.44Z"/><path class="b" d="M111.77,303.36v6.36h-6.36v-6.36h6.36Z"/><path class="b" d="M347.58,39.89h-6.19v-6.54h6.19v6.54Z"/><path class="b" d="M9.72,240.76H3.37v-6.44h6.35v6.44Z"/><path class="b" d="M278.58,309.89h-6.19v-6.54h6.19v6.54Z"/><path class="b" d="M296.75,309.79h-6.41v-6.5h6.41v6.5Z"/><path class="b" d="M311.3,303.25h6.32v6.41h-6.32v-6.41Z"/><path class="b" d="M335.89,303.33v6.25h-6.52v-6.25h6.52Z"/><path class="b" d="M356.21,309.75v-6.41h6.5v6.41h-6.5Z"/><path class="b" d="M386.39,303.2h6.3v6.54h-6.3v-6.54Z"/><path class="b" d="M419.33,303.11h6.25v6.52h-6.25v-6.52Z"/><path class="b" d="M503.39,231.2h6.3v6.54h-6.3v-6.54Z"/><path class="b" d="M482.75,303.3v6.32h-6.41v-6.32h6.41Z"/><path class="b" d="M464.11,237.58v-6.19h6.54v6.19h-6.54Z"/><path class="b" d="M86.3,309.25h6.32v6.41h-6.32v-6.41Z"/><path class="b" d="M407.36,231.23h6.36v6.36h-6.36v-6.36Z"/><path class="b" d="M176.33,309.11h6.25v6.52h-6.25v-6.52Z"/><path class="b" d="M443.7,315.75h-6.32v-6.41h6.32v6.41Z"/><path class="b" d="M341.76,231.28v6.35h-6.44v-6.35h6.44Z"/><path class="b" d="M125.3,315.25h6.32v6.41h-6.32v-6.41Z"/><path class="b" d="M317.89,231.33v6.25h-6.52v-6.25h6.52Z"/><path class="b" d="M227.89,315.42v6.19h-6.54v-6.19h6.54Z"/><path class="b" d="M239.39,315.2h6.3v6.54h-6.3v-6.54Z"/><path class="b" d="M278.76,315.28v6.35h-6.44v-6.35h6.44Z"/><path class="b" d="M296.64,237.77h-6.36v-6.36h6.36v6.36Z"/><path class="b" d="M182.61,33.8h-6.3v-6.54h6.3v6.54Z"/><path class="b" d="M380.89,315.33v6.25h-6.52v-6.25h6.52Z"/><path class="b" d="M278.28,231.24h6.35v6.44h-6.35v-6.44Z"/><path class="b" d="M15.89,321.42v6.19h-6.54v-6.19h6.54Z"/><path class="b" d="M111.21,237.75v-6.41h6.5v6.41h-6.5Z"/><path class="b" d="M66.36,321.23h6.36v6.36h-6.36v-6.36Z"/><path class="b" d="M111.8,321.39v6.3h-6.54v-6.3h6.54Z"/><path class="b" d="M296.58,327.89h-6.19v-6.54h6.19v6.54Z"/><path class="b" d="M317.3,321.25h6.32v6.41h-6.32v-6.41Z"/><path class="b" d="M419.39,321.2h6.3v6.54h-6.3v-6.54Z"/><path class="b" d="M458.24,327.72v-6.35h6.44v6.35h-6.44Z"/><path class="b" d="M482.76,321.28v6.35h-6.44v-6.35h6.44Z"/><path class="b" d="M86.64,333.77h-6.36v-6.36h6.36v6.36Z"/><path class="b" d="M98.79,231.25v6.41h-6.5v-6.41h6.5Z"/><path class="b" d="M176.2,333.61v-6.3h6.54v6.3h-6.54Z"/><path class="b" d="M335.42,327.11h6.19v6.54h-6.19v-6.54Z"/><path class="b" d="M368.89,327.42v6.19h-6.54v-6.19h6.54Z"/><path class="b" d="M386.11,333.67v-6.25h6.52v6.25h-6.52Z"/><path class="b" d="M54.42,231.11h6.19v6.54h-6.19v-6.54Z"/><path class="b" d="M380.61,39.8h-6.3v-6.54h6.3v6.54Z"/><path class="b" d="M362.39,225.2h6.3v6.54h-6.3v-6.54Z"/><path class="b" d="M188.58,231.89h-6.19v-6.54h6.19v6.54Z"/><path class="b" d="M464.79,21.25v6.41h-6.5v-6.41h6.5Z"/><path class="b" d="M131.24,231.72v-6.35h6.44v6.35h-6.44Z"/><path class="b" d="M35.2,231.61v-6.3h6.54v6.3h-6.54Z"/><path class="b" d="M335.64,225.77h-6.36v-6.36h6.36v6.36Z"/><path class="b" d="M323.25,21.21h6.41v6.5h-6.41v-6.5Z"/><path class="b" d="M476.61,219.8h-6.3v-6.54h6.3v6.54Z"/><path class="b" d="M425.33,213.11h6.25v6.52h-6.25v-6.52Z"/><path class="b" d="M392.76,213.28v6.35h-6.44v-6.35h6.44Z"/><path class="b" d="M21.7,45.75h-6.32v-6.41h6.32v6.41Z"/><path class="b" d="M233.7,219.75h-6.32v-6.41h6.32v6.41Z"/><path class="b" d="M176.42,213.11h6.19v6.54h-6.19v-6.54Z"/><path class="b" d="M80.25,213.21h6.41v6.5h-6.41v-6.5Z"/><path class="b" d="M239.75,27.79h-6.41v-6.5h6.41v6.5Z"/><path class="b" d="M60.33,213.11h6.25v6.52h-6.25v-6.52Z"/><path class="b" d="M15.36,213.23h6.36v6.36h-6.36v-6.36Z"/><path class="b" d="M362.21,213.75v-6.41h6.5v6.41h-6.5Z"/><path class="b" d="M317.72,213.76h-6.35v-6.44h6.35v6.44Z"/><path class="b" d="M284.42,207.11h6.19v6.54h-6.19v-6.54Z"/><path class="b" d="M272.75,213.79h-6.41v-6.5h6.41v6.5Z"/><path class="b" d="M213.75,213.79h-6.41v-6.5h6.41v6.5Z"/><path class="b" d="M213.7,27.75h-6.32v-6.41h6.32v6.41Z"/><path class="b" d="M156.33,21.11h6.25v6.52h-6.25v-6.52Z"/><path class="b" d="M54.42,354.11h6.19v6.54h-6.19v-6.54Z"/><path class="b" d="M131.39,354.2h6.3v6.54h-6.3v-6.54Z"/><path class="b" d="M182.2,360.61v-6.3h6.54v6.3h-6.54Z"/><path class="b" d="M47.75,213.79h-6.41v-6.5h6.41v6.5Z"/><path class="b" d="M296.7,360.75h-6.32v-6.41h6.32v6.41Z"/><path class="b" d="M470.8,354.39v6.3h-6.54v-6.3h6.54Z"/><path class="b" d="M15.36,360.23h6.36v6.36h-6.36v-6.36Z"/><path class="b" d="M41.11,366.67v-6.25h6.52v6.25h-6.52Z"/><path class="b" d="M156.2,45.61v-6.3h6.54v6.3h-6.54Z"/><path class="b" d="M9.76,193.28v6.35H3.33v-6.35h6.44Z"/><path class="b" d="M213.76,39.28v6.35h-6.44v-6.35h6.44Z"/><path class="b" d="M272.42,39.11h6.19v6.54h-6.19v-6.54Z"/><path class="b" d="M296.79,39.25v6.41h-6.5v-6.41h6.5Z"/><path class="b" d="M233.3,360.25h6.32v6.41h-6.32v-6.41Z"/><path class="b" d="M272.11,366.58v-6.19h6.54v6.19h-6.54Z"/><path class="b" d="M311.2,366.61v-6.3h6.54v6.3h-6.54Z"/><path class="b" d="M374.79,360.25v6.41h-6.5v-6.41h6.5Z"/><path class="b" d="M386.25,366.7v-6.32h6.41v6.32h-6.41Z"/><path class="b" d="M407.24,366.72v-6.35h6.44v6.35h-6.44Z"/><path class="b" d="M431.67,366.89h-6.25v-6.52h6.25v6.52Z"/><path class="b" d="M311.39,39.2h6.3v6.54h-6.3v-6.54Z"/><path class="b" d="M482.2,366.61v-6.3h6.54v6.3h-6.54Z"/><path class="b" d="M362.11,45.67v-6.25h6.52v6.25h-6.52Z"/><path class="b" d="M413.64,45.77h-6.36v-6.36h6.36v6.36Z"/><path class="b" d="M290.33,366.11h6.25v6.52h-6.25v-6.52Z"/><path class="b" d="M125.25,21.21h6.41v6.5h-6.41v-6.5Z"/><path class="b" d="M443.58,372.89h-6.19v-6.54h6.19v6.54Z"/><path class="b" d="M66.72,378.76h-6.35v-6.44h6.35v6.44Z"/><path class="b" d="M92.79,372.25v6.41h-6.5v-6.41h6.5Z"/><path class="b" d="M425.3,39.25h6.32v6.41h-6.32v-6.41Z"/><path class="b" d="M213.89,372.42v6.19h-6.54v-6.19h6.54Z"/><path class="b" d="M482.3,39.25h6.32v6.41h-6.32v-6.41Z"/><path class="b" d="M335.89,372.42v6.19h-6.54v-6.19h6.54Z"/><path class="b" d="M476.67,378.89h-6.25v-6.52h6.25v6.52Z"/><path class="b" d="M464.25,192.7v-6.32h6.41v6.32h-6.41Z"/><path class="b" d="M413.76,186.28v6.35h-6.44v-6.35h6.44Z"/><path class="b" d="M278.11,192.58v-6.19h6.54v6.19h-6.54Z"/><path class="b" d="M188.72,192.76h-6.35v-6.44h6.35v6.44Z"/><path class="b" d="M156.39,186.2h6.3v6.54h-6.3v-6.54Z"/><path class="b" d="M60.67,192.89h-6.25v-6.52h6.25v6.52Z"/><path class="b" d="M368.89,180.42v6.19h-6.54v-6.19h6.54Z"/><path class="b" d="M329.89,180.33v6.25h-6.52v-6.25h6.52Z"/><path class="b" d="M482.58,180.89h-6.19v-6.54h6.19v6.54Z"/><path class="b" d="M86.28,21.24h6.35v6.44h-6.35v-6.44Z"/><path class="b" d="M380.24,180.72v-6.35h6.44v6.35h-6.44Z"/><path class="b" d="M41.25,386.21h6.41v6.5h-6.41v-6.5Z"/><path class="b" d="M347.67,180.89h-6.25v-6.52h6.25v6.52Z"/><path class="b" d="M156.42,386.11h6.19v6.54h-6.19v-6.54Z"/><path class="b" d="M245.58,180.89h-6.19v-6.54h6.19v6.54Z"/><path class="b" d="M290.25,392.7v-6.32h6.41v6.32h-6.41Z"/><path class="b" d="M323.7,392.75h-6.32v-6.41h6.32v6.41Z"/><path class="b" d="M176.75,174.3v6.32h-6.41v-6.32h6.41Z"/><path class="b" d="M125.42,174.11h6.19v6.54h-6.19v-6.54Z"/><path class="b" d="M488.79,386.25v6.41h-6.5v-6.41h6.5Z"/><path class="b" d="M368.2,21.61v-6.3h6.54v6.3h-6.54Z"/><path class="b" d="M105.25,174.21h6.41v6.5h-6.41v-6.5Z"/><path class="b" d="M86.42,174.11h6.19v6.54h-6.19v-6.54Z"/><path class="b" d="M66.11,180.67v-6.25h6.52v6.25h-6.52Z"/><path class="b" d="M47.77,174.36v6.36h-6.36v-6.36h6.36Z"/><path class="b" d="M425.25,174.7v-6.32h6.41v6.32h-6.41Z"/><path class="b" d="M278.11,21.58v-6.19h6.54v6.19h-6.54Z"/><path class="b" d="M21.61,174.8h-6.3v-6.54h6.3v6.54Z"/><path class="b" d="M470.8,162.39v6.3h-6.54v-6.3h6.54Z"/><path class="b" d="M407.21,168.75v-6.41h6.5v6.41h-6.5Z"/><path class="b" d="M356.36,162.23h6.36v6.36h-6.36v-6.36Z"/><path class="b" d="M317.36,162.23h6.36v6.36h-6.36v-6.36Z"/><path class="b" d="M278.25,168.7v-6.32h6.41v6.32h-6.41Z"/><path class="b" d="M221.3,162.25h6.32v6.41h-6.32v-6.41Z"/><path class="b" d="M54.11,168.58v-6.19h6.54v6.19h-6.54Z"/><path class="b" d="M35.24,162.72v-6.35h6.44v6.35h-6.44Z"/><path class="b" d="M9.75,152.3v6.32H3.34v-6.32h6.41Z"/><path class="b" d="M188.23,21.64v-6.36h6.36v6.36h-6.36Z"/><path class="b" d="M9.36,60.23h6.36v6.36h-6.36v-6.36Z"/><path class="b" d="M54.39,60.2h6.3v6.54h-6.3v-6.54Z"/><path class="b" d="M105.28,405.24h6.35v6.44h-6.35v-6.44Z"/><path class="b" d="M105.36,60.23h6.36v6.36h-6.36v-6.36Z"/><path class="b" d="M188.25,66.7v-6.32h6.41v6.32h-6.41Z"/><path class="b" d="M266.36,405.23h6.36v6.36h-6.36v-6.36Z"/><path class="b" d="M362.28,405.24h6.35v6.44h-6.35v-6.44Z"/><path class="b" d="M245.89,60.33v6.25h-6.52v-6.25h6.52Z"/><path class="b" d="M86.79,411.25v6.41h-6.5v-6.41h6.5Z"/><path class="b" d="M131.72,417.76h-6.35v-6.44h6.35v6.44Z"/><path class="b" d="M162.58,417.89h-6.19v-6.54h6.19v6.54Z"/><path class="b" d="M207.11,417.67v-6.25h6.52v6.25h-6.52Z"/><path class="b" d="M227.28,411.24h6.35v6.44h-6.35v-6.44Z"/><path class="b" d="M464.28,135.24h6.35v6.44h-6.35v-6.44Z"/><path class="b" d="M296.67,417.89h-6.25v-6.52h6.25v6.52Z"/><path class="b" d="M329.24,417.72v-6.35h6.44v6.35h-6.44Z"/><path class="b" d="M443.89,411.33v6.25h-6.52v-6.25h6.52Z"/><path class="b" d="M431.89,135.42v6.19h-6.54v-6.19h6.54Z"/><path class="b" d="M15.7,423.75h-6.32v-6.41h6.32v6.41Z"/><path class="b" d="M66.33,417.11h6.25v6.52h-6.25v-6.52Z"/><path class="b" d="M182.79,417.25v6.41h-6.5v-6.41h6.5Z"/><path class="b" d="M317.7,423.75h-6.32v-6.41h6.32v6.41Z"/><path class="b" d="M356.25,417.21h6.41v6.5h-6.41v-6.5Z"/><path class="b" d="M392.58,423.89h-6.19v-6.54h6.19v6.54Z"/><path class="b" d="M296.8,135.39v6.3h-6.54v-6.3h6.54Z"/><path class="b" d="M419.2,423.61v-6.3h6.54v6.3h-6.54Z"/><path class="b" d="M482.75,423.79h-6.41v-6.5h6.41v6.5Z"/><path class="b" d="M266.36,135.23h6.36v6.36h-6.36v-6.36Z"/><path class="b" d="M111.75,21.79h-6.41v-6.5h6.41v6.5Z"/><path class="b" d="M233.75,141.79h-6.41v-6.5h6.41v6.5Z"/><path class="b" d="M60.79,135.25v6.41h-6.5v-6.41h6.5Z"/><path class="b" d="M15.23,141.64v-6.36h6.36v6.36h-6.36Z"/><path class="b" d="M425.89,60.42v6.19h-6.54v-6.19h6.54Z"/><path class="b" d="M392.7,135.75h-6.32v-6.41h6.32v6.41Z"/><path class="b" d="M86.33,431.11h6.25v6.52h-6.25v-6.52Z"/><path class="b" d="M131.67,437.89h-6.25v-6.52h6.25v6.52Z"/><path class="b" d="M156.25,431.21h6.41v6.5h-6.41v-6.5Z"/><path class="b" d="M207.36,431.23h6.36v6.36h-6.36v-6.36Z"/><path class="b" d="M233.24,437.72v-6.35h6.44v6.35h-6.44Z"/><path class="b" d="M329.67,437.89h-6.25v-6.52h6.25v6.52Z"/><path class="b" d="M362.67,135.89h-6.25v-6.52h6.25v6.52Z"/><path class="b" d="M464.79,431.25v6.41h-6.5v-6.41h6.5Z"/><path class="b" d="M335.11,135.58v-6.19h6.54v6.19h-6.54Z"/><path class="b" d="M311.25,129.21h6.41v6.5h-6.41v-6.5Z"/><path class="b" d="M176.39,437.2h6.3v6.54h-6.3v-6.54Z"/><path class="b" d="M188.64,135.77h-6.36v-6.36h6.36v6.36Z"/><path class="b" d="M35.23,135.64v-6.36h6.36v6.36h-6.36Z"/><path class="b" d="M419.61,129.8h-6.3v-6.54h6.3v6.54Z"/><path class="b" d="M437.24,443.72v-6.35h6.44v6.35h-6.44Z"/><path class="b" d="M374.79,123.25v6.41h-6.5v-6.41h6.5Z"/><path class="b" d="M227.64,129.77h-6.36v-6.36h6.36v6.36Z"/><path class="b" d="M125.21,129.75v-6.41h6.5v6.41h-6.5Z"/><path class="b" d="M105.2,129.61v-6.3h6.54v6.3h-6.54Z"/><path class="b" d="M86.36,123.23h6.36v6.36h-6.36v-6.36Z"/><path class="b" d="M341.75,123.79h-6.41v-6.5h6.41v6.5Z"/><path class="b" d="M296.8,117.39v6.3h-6.54v-6.3h6.54Z"/><path class="b" d="M266.33,117.11h6.25v6.52h-6.25v-6.52Z"/><path class="b" d="M182.11,123.67v-6.25h6.52v6.25h-6.52Z"/><path class="b" d="M470.11,117.58v-6.19h6.54v6.19h-6.54Z"/><path class="b" d="M470.77,60.36v6.36h-6.36v-6.36h6.36Z"/><path class="b" d="M380.89,111.42v6.19h-6.54v-6.19h6.54Z"/><path class="b" d="M311.33,111.11h6.25v6.52h-6.25v-6.52Z"/><path class="b" d="M245.72,117.76h-6.35v-6.44h6.35v6.44Z"/><path class="b" d="M213.61,117.8h-6.3v-6.54h6.3v6.54Z"/><path class="b" d="M66.89,111.33v6.25h-6.52v-6.25h6.52Z"/><path class="b" d="M509.76,105.28v6.35h-6.44v-6.35h6.44Z"/><path class="b" d="M431.8,105.39v6.3h-6.54v-6.3h6.54Z"/><path class="b" d="M41.42,456.11h6.19v6.54h-6.19v-6.54Z"/><path class="b" d="M125.11,462.67v-6.25h6.52v6.25h-6.52Z"/><path class="b" d="M182.75,456.3v6.32h-6.41v-6.32h6.41Z"/><path class="b" d="M362.3,105.25h6.32v6.41h-6.32v-6.41Z"/><path class="b" d="M329.25,456.21h6.41v6.5h-6.41v-6.5Z"/><path class="b" d="M386.36,456.23h6.36v6.36h-6.36v-6.36Z"/><path class="b" d="M335.36,105.23h6.36v6.36h-6.36v-6.36Z"/><path class="b" d="M296.89,105.42v6.19h-6.54v-6.19h6.54Z"/><path class="b" d="M380.76,462.28v6.35h-6.44v-6.35h6.44Z"/><path class="b" d="M111.42,105.11h6.19v6.54h-6.19v-6.54Z"/><path class="b" d="M98.64,111.77h-6.36v-6.36h6.36v6.36Z"/><path class="b" d="M47.67,111.89h-6.25v-6.52h6.25v6.52Z"/><path class="b" d="M15.42,105.11h6.19v6.54h-6.19v-6.54Z"/><path class="b" d="M482.39,60.2h6.3v6.54h-6.3v-6.54Z"/><path class="b" d="M35.25,72.7v-6.32h6.41v6.32h-6.41Z"/><path class="b" d="M290.67,72.89h-6.25v-6.52h6.25v6.52Z"/><path class="b" d="M323.3,66.25h6.32v6.41h-6.32v-6.41Z"/><path class="b" d="M419.33,90.11h6.25v6.52h-6.25v-6.52Z"/><path class="b" d="M341.36,90.23h6.36v6.36h-6.36v-6.36Z"/><path class="b" d="M278.67,96.89h-6.25v-6.52h6.25v6.52Z"/><path class="b" d="M80.39,90.2h6.3v6.54h-6.3v-6.54Z"/><path class="b" d="M9.42,90.11h6.19v6.54h-6.19v-6.54Z"/><path class="b" d="M35.42,476.11h6.19v6.54h-6.19v-6.54Z"/><path class="b" d="M290.8,476.39v6.3h-6.54v-6.3h6.54Z"/><path class="b" d="M470.42,84.11h6.19v6.54h-6.19v-6.54Z"/><path class="b" d="M323.36,476.23h6.36v6.36h-6.36v-6.36Z"/><path class="b" d="M368.11,482.67v-6.25h6.52v6.25h-6.52Z"/><path class="b" d="M368.39,84.2h6.3v6.54h-6.3v-6.54Z"/><path class="b" d="M323.89,84.42v6.19h-6.54v-6.19h6.54Z"/><path class="b" d="M27.67,488.89h-6.25v-6.52h6.25v6.52Z"/><path class="b" d="M86.39,482.2h6.3v6.54h-6.3v-6.54Z"/><path class="b" d="M131.58,488.89h-6.19v-6.54h6.19v6.54Z"/><path class="b" d="M170.2,488.61v-6.3h6.54v6.3h-6.54Z"/><path class="b" d="M233.89,482.42v6.19h-6.54v-6.19h6.54Z"/><path class="b" d="M272.89,482.42v6.19h-6.54v-6.19h6.54Z"/><path class="b" d="M347.58,488.89h-6.19v-6.54h6.19v6.54Z"/><path class="b" d="M413.76,482.28v6.35h-6.44v-6.35h6.44Z"/><path class="b" d="M437.64,488.77h-6.36v-6.36h6.36v6.36Z"/><path class="b" d="M245.7,90.75h-6.32v-6.41h6.32v6.41Z"/><path class="b" d="M188.89,84.33v6.25h-6.52v-6.25h6.52Z"/><path class="b" d="M356.21,494.75v-6.41h6.5v6.41h-6.5Z"/><path class="b" d="M380.11,494.58v-6.19h6.54v6.19h-6.54Z"/><path class="b" d="M111.75,84.3v6.32h-6.41v-6.32h6.41Z"/><path class="b" d="M66.75,84.3v6.32h-6.41v-6.32h6.41Z"/><path class="b" d="M47.77,84.36v6.36h-6.36v-6.36h6.36Z"/><path class="b" d="M380.2,84.61v-6.3h6.54v6.3h-6.54Z"/><path class="b" d="M362.75,78.3v6.32h-6.41v-6.32h6.41Z"/><path class="b" d="M437.61,78.8h-6.3v-6.54h6.3v6.54Z"/><path class="b" d="M413.76,72.28v6.35h-6.44v-6.35h6.44Z"/><path class="b" d="M347.8,72.39v6.3h-6.54v-6.3h6.54Z"/><path class="b" d="M266.23,78.64v-6.36h6.36v6.36h-6.36Z"/><path class="b" d="M233.67,78.89h-6.25v-6.52h6.25v6.52Z"/><path class="b" d="M176.67,78.89h-6.25v-6.52h6.25v6.52Z"/><path class="b" d="M125.33,72.11h6.25v6.52h-6.25v-6.52Z"/><path class="b" d="M9.42,501.11h6.19v6.54h-6.19v-6.54Z"/><path class="b" d="M80.24,507.72v-6.35h6.44v6.35h-6.44Z"/><path class="b" d="M272.24,507.72v-6.35h6.44v6.35h-6.44Z"/><path class="b" d="M347.58,507.89h-6.19v-6.54h6.19v6.54Z"/><path class="b" d="M92.61,78.8h-6.3v-6.54h6.3v6.54Z"/><path class="b" d="M425.61,507.8h-6.3v-6.54h6.3v6.54Z"/><path class="b" d="M21.36,72.23h6.36v6.36h-6.36v-6.36Z"/></svg>