<?xml version="1.0" encoding="UTF-8"?><svg id="c" xmlns="http://www.w3.org/2000/svg" xmlns:xlink="http://www.w3.org/1999/xlink" viewBox="0 0 512 512"><defs><style>.d{fill:#808284;}</style><symbol id="a" viewBox="0 0 71.5 45.5"><path class="d" d="M34.92,15.73c0,.38-.29.69-.64.69s-.64-.31-.64-.69.29-.69.64-.69.64.31.64.69Z"/><path class="d" d="M9.75,1.83c0,.38-.29.69-.64.69s-.64-.31-.64-.69.29-.69.64-.69.64.31.64.69Z"/><path class="d" d="M48.98,11.77c0,.38-.29.69-.64.69s-.64-.31-.64-.69.29-.69.64-.69.64.31.64.69Z"/><path class="d" d="M14.81,4.58c0,.38-.29.69-.64.69s-.64-.31-.64-.69.29-.69.64-.69.64.31.64.69Z"/><path class="d" d="M30.16,2.84c0,.38-.29.69-.64.69s-.64-.31-.64-.69.29-.69.64-.69.64.31.64.69Z"/><path class="d" d="M18.98,12.34c0,.38-.29.69-.64.69s-.64-.31-.64-.69.29-.69.64-.69.64.31.64.69Z"/><path class="d" d="M30.16,10.37c0,.38-.29.69-.64.69s-.64-.31-.64-.69.29-.69.64-.69.64.31.64.69Z"/><path class="d" d="M41.22,9.84c0,.38-.29.69-.64.69s-.64-.31-.64-.69.29-.69.64-.69.64.31.64.69Z"/><path class="d" d="M50.47,4.1c0,.38-.29.69-.64.69s-.64-.31-.64-.69.29-.69.64-.69.64.31.64.69Z"/><path class="d" d="M61.6,7.8c0,.38-.29.69-.64.69s-.64-.31-.64-.69.29-.69.64-.69.64.31.64.69Z"/><path class="d" d="M62.71,16.09c0,.38-.29.69-.64.69s-.64-.31-.64-.69.29-.69.64-.69.64.31.64.69Z"/><path class="d" d="M70.43,17.63c0,.38-.29.69-.64.69s-.64-.31-.64-.69.29-.69.64-.69.64.31.64.69Z"/><path class="d" d="M68.5,30.31c0,.38-.29.69-.64.69s-.64-.31-.64-.69.29-.69.64-.69.64.31.64.69Z"/><path class="d" d="M69.8,37.97c0,.38-.29.69-.64.69s-.64-.31-.64-.69.29-.69.64-.69.64.31.64.69Z"/><path class="d" d="M48.18,22.32c0,.38-.29.69-.64.69s-.64-.31-.64-.69.29-.69.64-.69.64.31.64.69Z"/><path class="d" d="M45.97,29.08c0,.38-.29.69-.64.69s-.64-.31-.64-.69.29-.69.64-.69.64.31.64.69Z"/><path class="d" d="M56.71,35.07c0,.38-.29.69-.64.69s-.64-.31-.64-.69.29-.69.64-.69.64.31.64.69Z"/><path class="d" d="M52.97,42.57c0,.38-.29.69-.64.69s-.64-.31-.64-.69.29-.69.64-.69.64.31.64.69Z"/><path class="d" d="M13.71,18.83c0,.38-.29.69-.64.69s-.64-.31-.64-.69.29-.69.64-.69.64.31.64.69Z"/><path class="d" d="M8.47,24.62c0,.38-.29.69-.64.69s-.64-.31-.64-.69.29-.69.64-.69.64.31.64.69Z"/><path class="d" d="M26.23,24.08c0,.38-.29.69-.64.69s-.64-.31-.64-.69.29-.69.64-.69.64.31.64.69Z"/><path class="d" d="M38.16,28.11c0,.38-.29.69-.64.69s-.64-.31-.64-.69.29-.69.64-.69.64.31.64.69Z"/><path class="d" d="M27.04,33.62c0,.38-.29.69-.64.69s-.64-.31-.64-.69.29-.69.64-.69.64.31.64.69Z"/><path class="d" d="M32.22,37.07c0,.38-.29.69-.64.69s-.64-.31-.64-.69.29-.69.64-.69.64.31.64.69Z"/><path class="d" d="M37.97,44.07c0,.38-.29.69-.64.69s-.64-.31-.64-.69.29-.69.64-.69.64.31.64.69Z"/><path class="d" d="M17.98,28.08c0,.38-.29.69-.64.69s-.64-.31-.64-.69.29-.69.64-.69.64.31.64.69Z"/><path class="d" d="M21.98,44.82c0,.38-.29.69-.64.69s-.64-.31-.64-.69.29-.69.64-.69.64.31.64.69Z"/><path class="d" d="M12.23,36.32c0,.38-.29.69-.64.69s-.64-.31-.64-.69.29-.69.64-.69.64.31.64.69Z"/><path class="d" d="M13.03,2.08c0,.19-.15.34-.34.34s-.34-.15-.34-.34.15-.34.34-.34.34.15.34.34Z"/><path class="d" d="M17.78,1.08c0,.19-.15.34-.34.34s-.34-.15-.34-.34.15-.34.34-.34.34.15.34.34Z"/><path class="d" d="M9.78,5.34c0,.19-.15.34-.34.34s-.34-.15-.34-.34.15-.34.34-.34.34.15.34.34Z"/><path class="d" d="M8.92,26.84c0,.19-.15.34-.34.34s-.34-.15-.34-.34.15-.34.34-.34.34.15.34.34Z"/><path class="d" d="M.69,23.08c0,.19-.15.34-.34.34s-.34-.15-.34-.34.15-.34.34-.34.34.15.34.34Z"/><path class="d" d="M3.92,20.07c0,.19-.15.34-.34.34s-.34-.15-.34-.34.15-.34.34-.34.34.15.34.34Z"/><path class="d" d="M10.43,18.34c0,.19-.15.34-.34.34s-.34-.15-.34-.34.15-.34.34-.34.34.15.34.34Z"/><path class="d" d="M14.68,23.58c0,.19-.15.34-.34.34s-.34-.15-.34-.34.15-.34.34-.34.34.15.34.34Z"/><path class="d" d="M11.19,29.07c0,.19-.15.34-.34.34s-.34-.15-.34-.34.15-.34.34-.34.34.15.34.34Z"/><path class="d" d="M11.16,33.06c0,.19-.15.34-.34.34s-.34-.15-.34-.34.15-.34.34-.34.34.15.34.34Z"/><path class="d" d="M21.18,30.35c0,.19-.15.34-.34.34s-.34-.15-.34-.34.15-.34.34-.34.34.15.34.34Z"/><path class="d" d="M18.17,35.06c0,.19-.15.34-.34.34s-.34-.15-.34-.34.15-.34.34-.34.34.15.34.34Z"/><path class="d" d="M17.77,19.91c0,.19-.15.34-.34.34s-.34-.15-.34-.34.15-.34.34-.34.34.16.34.34Z"/><path class="d" d="M15.42,16.83c0,.19-.15.34-.34.34s-.34-.15-.34-.34.15-.34.34-.34.34.15.34.34Z"/><path class="d" d="M13.43,13.84c0,.19-.15.34-.34.34s-.34-.15-.34-.34.15-.34.34-.34.34.15.34.34Z"/><path class="d" d="M3.2,34.83c0,.19-.15.34-.34.34s-.34-.15-.34-.34.15-.34.34-.34.34.15.34.34Z"/><path class="d" d="M5.43,39.82c0,.19-.15.34-.34.34s-.34-.15-.34-.34.15-.34.34-.34.34.15.34.34Z"/><path class="d" d="M1.4,43.83c0,.19-.15.34-.34.34s-.34-.15-.34-.34.15-.34.34-.34.34.15.34.34Z"/><path class="d" d="M13.42,40.82c0,.19-.15.34-.34.34s-.34-.15-.34-.34.15-.34.34-.34.34.15.34.34Z"/><path class="d" d="M16.66,38.56c0,.19-.15.34-.34.34s-.34-.15-.34-.34.15-.34.34-.34.34.15.34.34Z"/><path class="d" d="M17.67,41.57c0,.19-.15.34-.34.34s-.34-.15-.34-.34.15-.34.34-.34.34.15.34.34Z"/><path class="d" d="M21.93,36.59c0,.19-.15.34-.34.34s-.34-.15-.34-.34.15-.34.34-.34.34.15.34.34Z"/><path class="d" d="M26.93,37.35c0,.19-.15.34-.34.34s-.34-.15-.34-.34.15-.34.34-.34.34.15.34.34Z"/><path class="d" d="M27.18,29.83c0,.19-.15.34-.34.34s-.34-.15-.34-.34.15-.34.34-.34.34.15.34.34Z"/><path class="d" d="M32.92,30.57c0,.19-.15.34-.34.34s-.34-.15-.34-.34.15-.34.34-.34.34.15.34.34Z"/><path class="d" d="M38.16,36.14c0,.19-.15.34-.34.34s-.34-.15-.34-.34.15-.34.34-.34.34.15.34.34Z"/><path class="d" d="M34.69,41.05c0,.19-.15.34-.34.34s-.34-.15-.34-.34.15-.34.34-.34.34.15.34.34Z"/><path class="d" d="M40.52,31.78c0,.19-.15.34-.34.34s-.34-.15-.34-.34.15-.34.34-.34.34.15.34.34Z"/><path class="d" d="M34.92,27.33c0,.19-.15.34-.34.34s-.34-.15-.34-.34.15-.34.34-.34.34.15.34.34Z"/><path class="d" d="M22.8,26.65c0,.19-.15.34-.34.34s-.34-.15-.34-.34.15-.34.34-.34.34.15.34.34Z"/><path class="d" d="M16.03,7.58c0,.19-.15.34-.34.34s-.34-.15-.34-.34.15-.34.34-.34.34.15.34.34Z"/><path class="d" d="M8.26,11.79c0,.19-.15.34-.34.34s-.34-.15-.34-.34.15-.34.34-.34.34.15.34.34Z"/><path class="d" d="M23.43,23.6c0,.19-.15.34-.34.34s-.34-.15-.34-.34.15-.34.34-.34.34.16.34.34Z"/><path class="d" d="M22.81,18.84c0,.19-.15.34-.34.34s-.34-.15-.34-.34.15-.34.34-.34.34.15.34.34Z"/><path class="d" d="M28.43,21.83c0,.19-.15.34-.34.34s-.34-.15-.34-.34.15-.34.34-.34.34.15.34.34Z"/><path class="d" d="M29.91,17.84c0,.19-.15.34-.34.34s-.34-.15-.34-.34.15-.34.34-.34.34.16.34.34Z"/><path class="d" d="M31.42,25.34c0,.19-.15.34-.34.34s-.34-.15-.34-.34.15-.34.34-.34.34.15.34.34Z"/><path class="d" d="M23.95,13.59c0,.19-.15.34-.34.34s-.34-.15-.34-.34.15-.34.34-.34.34.15.34.34Z"/><path class="d" d="M28.17,13.11c0,.19-.15.34-.34.34s-.34-.15-.34-.34.15-.34.34-.34.34.15.34.34Z"/><path class="d" d="M32.19,14.33c0,.19-.15.34-.34.34s-.34-.15-.34-.34.15-.34.34-.34.34.15.34.34Z"/><path class="d" d="M34.68,19.32c0,.19-.15.34-.34.34s-.34-.16-.34-.34.15-.34.34-.34.34.15.34.34Z"/><path class="d" d="M37.16,18.84c0,.19-.15.34-.34.34s-.34-.15-.34-.34.15-.34.34-.34.34.15.34.34Z"/><path class="d" d="M39.67,24.34c0,.19-.15.34-.34.34s-.34-.15-.34-.34.15-.34.34-.34.34.15.34.34Z"/><path class="d" d="M42.42,25.33c0,.19-.15.34-.34.34s-.34-.15-.34-.34.15-.34.34-.34.34.15.34.34Z"/><path class="d" d="M39.93,14.62c0,.19-.15.34-.34.34s-.34-.15-.34-.34.15-.35.34-.35.34.15.34.35Z"/><path class="d" d="M43.17,13.09c0,.19-.15.34-.34.34s-.34-.15-.34-.34.15-.34.34-.34.34.15.34.34Z"/><path class="d" d="M43.9,17.33c0,.19-.15.34-.34.34s-.34-.15-.34-.34.15-.34.34-.34.34.15.34.34Z"/><path class="d" d="M43.67,20.33c0,.19-.15.34-.34.34s-.34-.15-.34-.34.15-.34.34-.34.34.15.34.34Z"/><path class="d" d="M47.67,15.85c0,.19-.15.34-.34.34s-.34-.15-.34-.34.15-.34.34-.34.34.15.34.34Z"/><path class="d" d="M51.18,17.59c0,.19-.15.34-.34.34s-.34-.15-.34-.34.15-.34.34-.34.34.15.34.34Z"/><path class="d" d="M52.66,21.64c0,.19-.15.34-.34.34s-.34-.15-.34-.34.15-.34.34-.34.34.15.34.34Z"/><path class="d" d="M52.66,29.08c0,.19-.16.34-.34.34s-.34-.15-.34-.34.15-.34.34-.34.34.15.34.34Z"/><path class="d" d="M26.42,6.6c0,.19-.15.34-.34.34s-.34-.15-.34-.34.15-.34.34-.34.34.15.34.34Z"/><path class="d" d="M32.68,2.59c0,.19-.15.34-.34.34s-.34-.15-.34-.34.15-.34.34-.34.34.15.34.34Z"/><path class="d" d="M32.92,6.6c0,.19-.15.34-.34.34s-.34-.15-.34-.34.15-.34.34-.34.34.15.34.34Z"/><path class="d" d="M36.43,10.6c0,.19-.15.34-.34.34s-.34-.15-.34-.34.15-.34.34-.34.34.15.34.34Z"/><path class="d" d="M42.18,6.6c0,.19-.15.34-.34.34s-.34-.15-.34-.34.15-.34.34-.34.34.15.34.34Z"/><path class="d" d="M43.91,1.84c0,.19-.15.34-.34.34s-.34-.15-.34-.34.15-.34.34-.34.34.15.34.34Z"/><path class="d" d="M46.18,6.35c0,.19-.15.34-.34.34s-.34-.15-.34-.34.15-.34.34-.34.34.15.34.34Z"/><path class="d" d="M50.15,7.86c0,.19-.15.34-.34.34s-.34-.15-.34-.34.15-.34.34-.34.34.15.34.34Z"/><path class="d" d="M57.17.34c0,.19-.15.34-.34.34s-.34-.15-.34-.34.15-.34.34-.34.34.15.34.34Z"/><path class="d" d="M55.91,3.35c0,.19-.16.34-.34.34s-.34-.15-.34-.34.15-.34.34-.34.34.15.34.34Z"/><path class="d" d="M56.09,8.2c0,.19-.15.34-.34.34s-.34-.15-.34-.34.15-.34.34-.34.34.15.34.34Z"/><path class="d" d="M68.68,2.6c0,.19-.15.34-.34.34s-.34-.15-.34-.34.15-.34.34-.34.34.15.34.34Z"/><path class="d" d="M68.17,5.59c0,.19-.15.34-.34.34s-.34-.15-.34-.34.15-.34.34-.34.34.15.34.34Z"/><path class="d" d="M71.38,8.09c0,.19-.15.34-.34.34s-.34-.15-.34-.34.15-.34.34-.34.34.15.34.34Z"/><path class="d" d="M56.06,12.92c0,.19-.15.34-.34.34s-.34-.15-.34-.34.15-.34.34-.34.34.15.34.34Z"/><path class="d" d="M56.18,18.35c0,.19-.15.34-.34.34s-.34-.15-.34-.34.15-.34.34-.34.34.15.34.34Z"/><path class="d" d="M60.17,16.86c0,.19-.15.34-.34.34s-.34-.16-.34-.34.15-.34.34-.34.34.15.34.34Z"/><path class="d" d="M65.93,15.33c0,.19-.15.34-.34.34s-.34-.15-.34-.34.15-.34.34-.34.34.15.34.34Z"/><path class="d" d="M64.67,19.34c0,.19-.15.34-.34.34s-.34-.15-.34-.34.15-.34.34-.34.34.15.34.34Z"/><path class="d" d="M66.9,19.34c0,.19-.15.34-.34.34s-.34-.15-.34-.34.15-.34.34-.34.34.15.34.34Z"/><path class="d" d="M44.17,44.32c0,.19-.16.34-.34.34s-.34-.15-.34-.34.15-.34.34-.34.34.15.34.34Z"/><path class="d" d="M44.92,38.82c0,.19-.15.34-.34.34s-.34-.15-.34-.34.15-.34.34-.34.34.15.34.34Z"/><path class="d" d="M48.67,40.82c0,.19-.15.34-.34.34s-.34-.15-.34-.34.15-.34.34-.34.34.15.34.34Z"/><path class="d" d="M55.91,27.58c0,.19-.16.34-.34.34s-.34-.15-.34-.34.15-.34.34-.34.34.15.34.34Z"/><path class="d" d="M58.41,30.33c0,.19-.16.34-.34.34s-.34-.15-.34-.34.15-.34.34-.34.34.15.34.34Z"/><path class="d" d="M57.45,38.59c0,.19-.15.34-.34.34s-.34-.15-.34-.34.16-.34.34-.34.34.15.34.34Z"/><path class="d" d="M52.91,37.61c0,.19-.15.34-.34.34s-.34-.15-.34-.34.15-.34.34-.34.34.15.34.34Z"/><path class="d" d="M53.45,32.33c0,.19-.15.34-.34.34s-.34-.15-.34-.34.16-.34.34-.34.34.15.34.34Z"/><path class="d" d="M48.17,33.32c0,.19-.15.34-.34.34s-.34-.15-.34-.34.15-.34.34-.34.34.15.34.34Z"/><path class="d" d="M48.92,36.82c0,.19-.15.34-.34.34s-.34-.15-.34-.34.15-.34.34-.34.34.15.34.34Z"/><path class="d" d="M71.5,39.22c0,.19-.15.34-.34.34s-.34-.15-.34-.34.15-.34.34-.34.34.15.34.34Z"/><path class="d" d="M64.43,36.51c0,.19-.15.34-.34.34s-.34-.15-.34-.34.15-.34.34-.34.34.15.34.34Z"/><path class="d" d="M64.93,29.1c0,.19-.15.34-.34.34s-.34-.15-.34-.34.15-.34.34-.34.34.15.34.34Z"/><path class="d" d="M70.17,29.31c0,.19-.15.34-.34.34s-.34-.15-.34-.34.15-.34.34-.34.34.15.34.34Z"/><path class="d" d="M60.93,23.36c0,.19-.15.34-.34.34s-.34-.15-.34-.34.15-.34.34-.34.34.15.34.34Z"/><path class="d" d="M56.16,23.33c0,.19-.16.34-.34.34s-.34-.15-.34-.34.15-.34.34-.34.34.15.34.34Z"/></symbol></defs><use width="71.5" height="45.5" transform="translate(328.19 171.19) scale(3.77)" xlink:href="#a"/><use width="71.5" height="45.5" transform="translate(430.09 169.14) scale(3.77)" xlink:href="#a"/><use width="71.5" height="45.5" transform="translate(436.97 288.44) scale(3.77)" xlink:href="#a"/><use width="71.5" height="45.5" transform="translate(327.36 466.12) scale(3.77)" xlink:href="#a"/><use width="71.5" height="45.5" transform="translate(-95.91 -119.16) scale(3.77)" xlink:href="#a"/><use width="71.5" height="45.5" transform="translate(284.65 309.6) scale(3.77)" xlink:href="#a"/><use width="71.5" height="45.5" transform="translate(345.14 -25.96) scale(3.77)" xlink:href="#a"/><use width="71.5" height="45.5" transform="translate(134.57 -124.01) scale(3.77)" xlink:href="#a"/><use width="71.5" height="45.5" transform="translate(504.31 -114.5) scale(3.77)" xlink:href="#a"/><use width="71.5" height="45.5" transform="translate(222.74 422.89) scale(3.77)" xlink:href="#a"/><use width="71.5" height="45.5" transform="translate(-41.8 126.29) scale(3.77)" xlink:href="#a"/><use width="71.5" height="45.5" transform="translate(240.66 -10.39) scale(3.77)" xlink:href="#a"/><use width="71.5" height="45.5" transform="translate(37.54 50.78) scale(3.77)" xlink:href="#a"/><use width="71.5" height="45.5" transform="translate(41.45 246.97) scale(3.77)" xlink:href="#a"/><use width="71.5" height="45.5" transform="translate(443.05 441.17) scale(3.77)" xlink:href="#a"/><use width="71.5" height="45.5" transform="translate(163.76 305.07) scale(3.77)" xlink:href="#a"/><use width="71.5" height="45.5" transform="translate(186.31 113.69) scale(3.77)" xlink:href="#a"/><use width="71.5" height="45.5" transform="translate(507.61 .94) scale(3.77)" xlink:href="#a"/><use width="71.5" height="45.5" transform="translate(228.24 -141.32) rotate(90) scale(2.8)" xlink:href="#a"/><use width="71.5" height="45.5" transform="translate(460.21 -73.88) rotate(90) scale(2.8)" xlink:href="#a"/><use width="71.5" height="45.5" transform="translate(448.71 185.99) rotate(90) scale(2.8)" xlink:href="#a"/><use width="71.5" height="45.5" transform="translate(126.55 316.63) rotate(90) scale(2.8)" xlink:href="#a"/><use width="71.5" height="45.5" transform="translate(68.34 45.74) rotate(90) scale(2.8)" xlink:href="#a"/><use width="71.5" height="45.5" transform="translate(141.1 -110.51) rotate(90) scale(2.8)" xlink:href="#a"/><use width="71.5" height="45.5" transform="translate(207.6 -35.47) rotate(90) scale(2.8)" xlink:href="#a"/><use width="71.5" height="45.5" transform="translate(134.04 163.84) rotate(90) scale(2.8)" xlink:href="#a"/><use width="71.5" height="45.5" transform="translate(21.33 244.73) rotate(90) scale(2.8)" xlink:href="#a"/><use width="71.5" height="45.5" transform="translate(353.54 -128.58) rotate(90) scale(2.8)" xlink:href="#a"/><use width="71.5" height="45.5" transform="translate(228.57 185.49) rotate(90) scale(2.8)" xlink:href="#a"/><use width="71.5" height="45.5" transform="translate(56.79 -31.79) rotate(90) scale(2.8)" xlink:href="#a"/><use width="71.5" height="45.5" transform="translate(11.4 -182.51) rotate(90) scale(2.8)" xlink:href="#a"/><use width="71.5" height="45.5" transform="translate(48.38 166.29) rotate(90) scale(2.8)" xlink:href="#a"/><use width="71.5" height="45.5" transform="translate(58.29 456.85) rotate(90) scale(2.8)" xlink:href="#a"/><use width="71.5" height="45.5" transform="translate(181.97 504.06) rotate(90) scale(2.8)" xlink:href="#a"/><use width="71.5" height="45.5" transform="translate(232.96 443.43) rotate(90) scale(2.8)" xlink:href="#a"/><use width="71.5" height="45.5" transform="translate(548.38 17.78) rotate(90) scale(2.8)" xlink:href="#a"/><use width="71.5" height="45.5" transform="translate(452.76 11.1) rotate(90) scale(2.8)" xlink:href="#a"/><use width="71.5" height="45.5" transform="translate(188.63 78.03) rotate(90) scale(2.8)" xlink:href="#a"/><use width="71.5" height="45.5" transform="translate(306.64 6.55) rotate(90) scale(2.8)" xlink:href="#a"/><use width="71.5" height="45.5" transform="translate(600.75 469.29) rotate(90) scale(2.8)" xlink:href="#a"/><use width="71.5" height="45.5" transform="translate(351.98 461.36) rotate(90) scale(2.8)" xlink:href="#a"/><use width="71.5" height="45.5" transform="translate(357.68 388.82) rotate(90) scale(2.8)" xlink:href="#a"/><use width="71.5" height="45.5" transform="translate(421.47 337.91) rotate(90) scale(2.8)" xlink:href="#a"/><use width="71.5" height="45.5" transform="translate(153.08 392.93) rotate(90) scale(2.8)" xlink:href="#a"/><use width="71.5" height="45.5" transform="translate(196.93 264.75) rotate(90) scale(2.8)" xlink:href="#a"/><use width="71.5" height="45.5" transform="translate(552.28 97.43) rotate(90) scale(2.8)" xlink:href="#a"/><use width="71.5" height="45.5" transform="translate(463.07 465.86) rotate(90) scale(2.8)" xlink:href="#a"/><use width="71.5" height="45.5" transform="translate(303.47 265.5) rotate(90) scale(2.8)" xlink:href="#a"/><use width="71.5" height="45.5" transform="translate(288.15 135.58) rotate(90) scale(2.8)" xlink:href="#a"/><use width="71.5" height="45.5" transform="translate(360.72 78.67) rotate(90) scale(2.8)" xlink:href="#a"/><use width="71.5" height="45.5" transform="translate(366.53 202.53) rotate(90) scale(2.8)" xlink:href="#a"/><use width="71.5" height="45.5" transform="translate(598.05 358.4) rotate(90) scale(2.8)" xlink:href="#a"/><use width="71.5" height="45.5" transform="translate(636.22 240.11) rotate(90) scale(2.8)" xlink:href="#a"/><use width="71.5" height="45.5" transform="translate(475.74 264.25) rotate(90) scale(2.8)" xlink:href="#a"/><use width="71.5" height="45.5" transform="translate(541.32 433) rotate(90) scale(2.8)" xlink:href="#a"/><use width="71.5" height="45.5" transform="translate(508.74 363.4) rotate(90) scale(2.8)" xlink:href="#a"/><use width="71.5" height="45.5" transform="translate(555.36 252.22) rotate(90) scale(2.8)" xlink:href="#a"/><use width="71.5" height="45.5" transform="translate(605.21 162.77) rotate(90) scale(2.8)" xlink:href="#a"/><use width="71.5" height="45.5" transform="translate(297.09 345.02) rotate(90) scale(2.8)" xlink:href="#a"/><use width="71.5" height="45.5" transform="translate(442.02 102.04) rotate(90) scale(2.8)" xlink:href="#a"/></svg>