<?xml version="1.0" encoding="UTF-8"?><svg id="a" xmlns="http://www.w3.org/2000/svg" viewBox="0 0 512 512"><defs><style>.b{fill:#faaf3f;}</style></defs><path class="b" d="M512.06,35.94h-7.65v-9h7.65v9Z"/><path class="b" d="M512.06,496.94h-7.65v-9h7.65v9Z"/><path class="b" d="M512.06,252.94h-7.65v-8h7.65v8Z"/><path class="b" d="M512.06,443.94h-7.65v-7h7.65v7Z"/><path class="b" d="M512.06,335.94h-7.65v-7h7.65v7Z"/><path class="b" d="M512.06,296.94h-7.65v-7h7.65v7Z"/><path class="b" d="M512.06,233.94h-7.65v-7h7.65v7Z"/><path class="b" d="M512.06,213.94h-7.65v-7h7.65v7Z"/><path class="b" d="M512.06,162.94h-7.65v-7h7.65v7Z"/><path class="b" d="M512.06,131.94h-7.65v-7h7.65v7Z"/><path class="b" d="M512.06,86.94h-7.65v-7h7.65v7Z"/><path class="b" d="M.06,257.94h4.69v8.76c-1.56.08-3.12.16-4.69.24v-9Z"/><path class="b" d="M.06,193.94h4.68v7.76c-1.55.08-3.12.16-4.68.24v-8Z"/><path class="b" d="M.06,130.94h4.68v6.75c-1.55.08-3.11.17-4.68.25v-7Z"/><path class="b" d="M.06,169.94h4.68v6.75c-1.55.08-3.11.17-4.68.25v-7Z"/><path class="b" d="M.06,226.94h4.68v6.75c-1.55.08-3.11.17-4.68.25v-7Z"/><path class="b" d="M267.31,169.97h7.35v6.62h-8.37c-.13-1.74-.25-3.47-.39-5.46-2.17-.13-4.1-.24-6.43-.38v-8.45h7.38c.15,2.52.31,5.04.47,7.68Z"/><path class="b" d="M319.41,21.17h6.37v14.53h-6.37v-14.53Z"/><path class="b" d="M459.31,233.74v-6.43h7.49c.15,1.66.3,3.4.49,5.43,1.85.13,3.59.26,5.53.4v6.42h-6.46c-.16-1.66-.33-3.39-.53-5.45-2.17-.12-4.23-.24-6.5-.37Z"/><path class="b" d="M62.82,233.14v6.44h-7.53c-.13-1.7-.26-3.44-.42-5.44-1.79-.13-3.4-.24-5.4-.39v-6.44h6.34c.14,1.7.28,3.43.45,5.45,2.11.13,4.05.24,6.56.39Z"/><path class="b" d="M319.63,356.82h-9.18v-9.53h9.18v9.53Z"/><path class="b" d="M319.3,443.56v-12.34h6.36v12.34h-6.36Z"/><path class="b" d="M35.35,347.18h8.35v9.43h-8.35v-9.43Z"/><path class="b" d="M229.84,443.2v9.38h-8.47v-9.38h8.47Z"/><path class="b" d="M125.32,407.59v-9.4h8.36v9.4h-8.36Z"/><path class="b" d="M496.44,398.16h8.33v9.35h-8.33v-9.35Z"/><path class="b" d="M310.31,80.64v-8.33h9.41v8.33h-9.41Z"/><path class="b" d="M415.64,266.74h-9.25v-8.52h9.25v8.52Z"/><path class="b" d="M35.35,162.19h8.33v8.42h-8.33v-8.42Z"/><path class="b" d="M221.27,266.55v-8.3h8.53v8.3h-8.53Z"/><path class="b" d="M178.7,35.7h-8.35v-8.35h8.35v8.35Z"/><path class="b" d="M178.77,125.69h-8.33v-8.42h8.33v8.42Z"/><path class="b" d="M43.95,72.36v8.18h-8.53v-8.18h8.53Z"/><path class="b" d="M459.81,213.23v8.33h-8.42v-8.33h8.42Z"/><path class="b" d="M355.26,503.54v-7.29h9.53v7.29h-9.53Z"/><path class="b" d="M259.46,443.13h7.29v9.53h-7.29v-9.53Z"/><path class="b" d="M415.86,194.19v7.41h-9.5v-7.41h9.5Z"/><path class="b" d="M106.28,407.68v-9.4h7.49v9.4h-7.49Z"/><path class="b" d="M88.8,143.27v7.41h-8.35v-7.41h8.35Z"/><path class="b" d="M35.36,200.19h8.31v7.41h-8.31v-7.41Z"/><path class="b" d="M119.81,258.29v8.38h-7.36v-8.38h7.36Z"/><path class="b" d="M112.26,35.53v-8.27h7.53v8.27h-7.53Z"/><path class="b" d="M80.29,258.58v-7.36h8.36v7.36h-8.36Z"/><path class="b" d="M363.3,170.66v-8.35h7.44v8.35h-7.44Z"/><path class="b" d="M311.79,170.71h-7.38v-8.46h7.38v8.46Z"/><path class="b" d="M266.39,194.05h8.26v7.52h-8.26v-7.52Z"/><path class="b" d="M55.28,80.56v-8.33h7.53v8.33h-7.53Z"/><path class="b" d="M178.82,251.22v7.34h-8.43v-7.34h8.43Z"/><path class="b" d="M221.3,150.65v-7.34h8.43v7.34h-8.43Z"/><path class="b" d="M43.83,143.3v7.36h-8.35v-7.36h8.35Z"/><path class="b" d="M466.77,266.69h-7.33v-8.41h7.33v8.41Z"/><path class="b" d="M221.41,200.19h8.38v7.36h-8.38v-7.36Z"/><path class="b" d="M113.78,311.7h-7.34v-8.43h7.34v8.43Z"/><path class="b" d="M190.41,347.18h6.39v9.35h-6.39v-9.35Z"/><path class="b" d="M190.32,407.63v-9.28h6.39v9.28h-6.39Z"/><path class="b" d="M490.76,356.68h-6.32v-9.39h6.32v9.39Z"/><path class="b" d="M235.38,398.04h6.27v9.52h-6.27v-9.52Z"/><path class="b" d="M406.3,131.14h9.42v6.51h-9.42v-6.51Z"/><path class="b" d="M415.69,176.7h-9.35v-6.36h9.35v6.36Z"/><path class="b" d="M415.84,227.31v6.34h-9.54v-6.34h9.54Z"/><path class="b" d="M394.36,398.2h6.32v9.39h-6.32v-9.39Z"/><path class="b" d="M280.32,452.63v-9.28h6.39v9.28h-6.39Z"/><path class="b" d="M292.46,347.04h6.2v9.52h-6.2v-9.52Z"/><path class="b" d="M376.32,452.6v-9.41h6.37v9.41h-6.37Z"/><path class="b" d="M145.72,356.69h-6.39v-9.35h6.39v9.35Z"/><path class="b" d="M310.3,509.66v-6.36h9.44v6.36h-9.44Z"/><path class="b" d="M119.38,347.04h6.27v9.52h-6.27v-9.52Z"/><path class="b" d="M319.75,488.68h-9.28v-6.39h9.28v6.39Z"/><path class="b" d="M310.32,392.64v-6.32h9.39v6.32h-9.39Z"/><path class="b" d="M94.83,398.21v9.37h-6.46v-9.37h6.46Z"/><path class="b" d="M319.85,227.19v6.41h-9.49v-6.41h9.49Z"/><path class="b" d="M310.31,137.59v-6.39h9.35v6.39h-9.35Z"/><path class="b" d="M319.79,117.71h-9.37v-6.46h9.37v6.46Z"/><path class="b" d="M310.4,92.2h9.41v6.37h-9.41v-6.37Z"/><path class="b" d="M74.32,356.63v-9.28h6.39v9.28h-6.39Z"/><path class="b" d="M451.64,356.74h-6.25v-9.51h6.25v9.51Z"/><path class="b" d="M355.28,92.57v-6.34h9.54v6.34h-9.54Z"/><path class="b" d="M445.67,452.84h-6.2v-9.52h6.2v9.52Z"/><path class="b" d="M355.8,443.28v9.41h-6.37v-9.41h6.37Z"/><path class="b" d="M35.64,452.74h-6.25v-9.51h6.25v9.51Z"/><path class="b" d="M364.82,111.74h-9.42v-6.51h9.42v6.51Z"/><path class="b" d="M355.25,131.54v-6.29h9.54v6.29h-9.54Z"/><path class="b" d="M364.75,380.68h-9.28v-6.39h9.28v6.39Z"/><path class="b" d="M355.3,335.14h9.42v6.51h-9.42v-6.51Z"/><path class="b" d="M364.85,311.19v6.41h-9.49v-6.41h9.49Z"/><path class="b" d="M355.32,245.64v-6.32h9.39v6.32h-9.39Z"/><path class="b" d="M364.72,213.68h-9.41v-6.37h9.41v6.37Z"/><path class="b" d="M364.79,188.71h-9.37v-6.46h9.37v6.46Z"/><path class="b" d="M17.82,149.22v7.34h-7.43v-7.34h7.43Z"/><path class="b" d="M466.74,458.83h-7.27v-7.53h7.27v7.53Z"/><path class="b" d="M61.48,245.05h7.18v7.54h-7.18v-7.54Z"/><path class="b" d="M10.35,200.18h7.34v7.43h-7.34v-7.43Z"/><path class="b" d="M68.8,150.72h-7.39v-7.48h7.39v7.48Z"/><path class="b" d="M311.74,201.83h-7.27v-7.53h7.27v7.53Z"/><path class="b" d="M164.78,503.7h-7.34v-7.43h7.34v7.43Z"/><path class="b" d="M10.25,303.53v-7.28h7.54v7.28h-7.54Z"/><path class="b" d="M157.31,399.59v-7.39h7.36v7.39h-7.36Z"/><path class="b" d="M10.17,458.52v-7.18h7.54v7.18h-7.54Z"/><path class="b" d="M259.35,251.18h7.34v7.43h-7.34v-7.43Z"/><path class="b" d="M170.64,201.83h-7.18v-7.54h7.18v7.54Z"/><path class="b" d="M247.66,35.84h-6.2v-8.53h6.2v8.53Z"/><path class="b" d="M235.45,303.14h6.31v8.54h-6.31v-8.54Z"/><path class="b" d="M10.83,488.21v8.36h-6.46v-8.36h6.46Z"/><path class="b" d="M241.46,117.04h6.2v8.53h-6.2v-8.53Z"/><path class="b" d="M235.32,496.6v-8.41h6.37v8.41h-6.37Z"/><path class="b" d="M229.86,21.36v6.25h-8.51v-6.25h8.51Z"/><path class="b" d="M229.96,35.34v6.2h-8.53v-6.2h8.53Z"/><path class="b" d="M229.8,60.27v6.42h-8.35v-6.42h8.35Z"/><path class="b" d="M221.34,105.17h8.36v6.46h-8.36v-6.46Z"/><path class="b" d="M221.4,170.2h8.41v6.37h-8.41v-6.37Z"/><path class="b" d="M221.27,284.51v-6.24h8.5v6.24h-8.5Z"/><path class="b" d="M221.43,362.17h8.35v6.36h-8.35v-6.36Z"/><path class="b" d="M427.36,213.19h6.32v8.4h-6.32v-8.4Z"/><path class="b" d="M229.8,380.27v6.42h-8.35v-6.42h8.35Z"/><path class="b" d="M221.16,437.54v-6.2h8.53v6.2h-8.53Z"/><path class="b" d="M478.48,258.14h6.25v8.51h-6.25v-8.51Z"/><path class="b" d="M253.49,213.14h6.24v8.5h-6.24v-8.5Z"/><path class="b" d="M229.86,470.36v6.25h-8.51v-6.25h8.51Z"/><path class="b" d="M215.32,311.6v-8.41h6.37v8.41h-6.37Z"/><path class="b" d="M17.29,221.66v-8.36h6.46v8.36h-6.46Z"/><path class="b" d="M274.83,476.22v6.36h-8.44v-6.36h8.44Z"/><path class="b" d="M274.83,386.22v6.36h-8.44v-6.36h8.44Z"/><path class="b" d="M274.82,245.73h-8.42v-6.51h8.42v6.51Z"/><path class="b" d="M266.26,72.52v-6.25h8.51v6.25h-8.51Z"/><path class="b" d="M196.42,27.17h6.37v8.35h-6.37v-8.35Z"/><path class="b" d="M190.33,303.17h6.37v8.45h-6.37v-8.45Z"/><path class="b" d="M35.8,303.25v8.29h-6.39v-8.29h6.39Z"/><path class="b" d="M35.17,488.63v-6.31h8.54v6.31h-8.54Z"/><path class="b" d="M35.26,470.55v-6.31h8.54v6.31h-8.54Z"/><path class="b" d="M35.32,425.64v-6.32h8.4v6.32h-8.4Z"/><path class="b" d="M484.83,27.21v8.36h-6.46v-8.36h6.46Z"/><path class="b" d="M280.86,213.18v8.42h-6.51v-8.42h6.51Z"/><path class="b" d="M35.43,239.17h8.35v6.36h-8.35v-6.36Z"/><path class="b" d="M415.39,488.2h6.42v8.35h-6.42v-8.35Z"/><path class="b" d="M178.49,488.14h6.24v8.5h-6.24v-8.5Z"/><path class="b" d="M439.46,303.04h6.2v8.53h-6.2v-8.53Z"/><path class="b" d="M43.72,194.68h-8.41v-6.37h8.41v6.37Z"/><path class="b" d="M178.83,15.3v6.37h-8.35v-6.37h8.35Z"/><path class="b" d="M504.83,9.3v6.37h-8.35v-6.37h8.35Z"/><path class="b" d="M35.29,111.58v-6.37h8.35v6.37h-8.35Z"/><path class="b" d="M496.34,66.17h8.36v6.46h-8.36v-6.46Z"/><path class="b" d="M43.86,54.37v6.24h-8.5v-6.24h8.5Z"/><path class="b" d="M35.43,9.17h8.35v6.36h-8.35v-6.36Z"/><path class="b" d="M43.29,221.57v-8.35h6.36v8.35h-6.36Z"/><path class="b" d="M178.75,98.68h-8.29v-6.39h8.29v6.39Z"/><path class="b" d="M55.86,258.34v8.29h-6.53v-8.29h6.53Z"/><path class="b" d="M280.29,170.66v-8.36h6.46v8.36h-6.46Z"/><path class="b" d="M170.16,162.54v-6.2h8.53v6.2h-8.53Z"/><path class="b" d="M178.72,213.68h-8.41v-6.37h8.41v6.37Z"/><path class="b" d="M178.69,227.71h-8.35v-6.36h8.35v6.36Z"/><path class="b" d="M292.29,496.57v-8.35h6.36v8.35h-6.36Z"/><path class="b" d="M178.82,278.73h-8.42v-6.51h8.42v6.51Z"/><path class="b" d="M178.79,296.71h-8.36v-6.46h8.36v6.46Z"/><path class="b" d="M178.83,407.22v6.36h-8.44v-6.36h8.44Z"/><path class="b" d="M170.34,425.17h8.36v6.46h-8.36v-6.46Z"/><path class="b" d="M504.72,182.68h-8.41v-6.37h8.41v6.37Z"/><path class="b" d="M170.29,443.58v-6.37h8.35v6.37h-8.35Z"/><path class="b" d="M170.46,503.14h8.29v6.53h-8.29v-6.53Z"/><path class="b" d="M496.4,311.2h8.41v6.37h-8.41v-6.37Z"/><path class="b" d="M298.86,117.18v8.42h-6.51v-8.42h6.51Z"/><path class="b" d="M472.8,72.25v8.29h-6.39v-8.29h6.39Z"/><path class="b" d="M145.34,72.17h6.36v8.44h-6.36v-8.44Z"/><path class="b" d="M145.34,162.17h6.36v8.44h-6.36v-8.44Z"/><path class="b" d="M496.29,362.58v-6.37h8.35v6.37h-8.35Z"/><path class="b" d="M151.7,221.71h-6.37v-8.35h6.37v8.35Z"/><path class="b" d="M139.27,35.54v-8.29h6.53v8.29h-6.53Z"/><path class="b" d="M388.8,162.25v8.29h-6.39v-8.29h6.39Z"/><path class="b" d="M504.83,386.21v6.37h-8.45v-6.37h8.45Z"/><path class="b" d="M133.42,117.17h6.37v8.35h-6.37v-8.35Z"/><path class="b" d="M133.82,15.73h-8.42v-6.51h8.42v6.51Z"/><path class="b" d="M125.26,111.55v-6.31h8.54v6.31h-8.54Z"/><path class="b" d="M325.64,221.74h-6.25v-8.51h6.25v8.51Z"/><path class="b" d="M68.49,258.14h6.24v8.5h-6.24v-8.5Z"/><path class="b" d="M125.27,143.51v-6.24h8.5v6.24h-8.5Z"/><path class="b" d="M125.17,188.63v-6.31h8.54v6.31h-8.54Z"/><path class="b" d="M74.86,27.34v8.29h-6.53v-8.29h6.53Z"/><path class="b" d="M125.34,227.17h8.36v6.46h-8.36v-6.46Z"/><path class="b" d="M496.32,425.64v-6.32h8.4v6.32h-8.4Z"/><path class="b" d="M125.37,272.2h8.29v6.39h-8.29v-6.39Z"/><path class="b" d="M80.3,374.66v-6.36h8.44v6.36h-8.44Z"/><path class="b" d="M80.26,284.52v-6.25h8.51v6.25h-8.51Z"/><path class="b" d="M496.31,476.14h8.42v6.51h-8.42v-6.51Z"/><path class="b" d="M133.8,368.27v6.42h-8.35v-6.42h8.35Z"/><path class="b" d="M88.83,188.22v6.36h-8.44v-6.36h8.44Z"/><path class="b" d="M88.83,105.22v6.36h-8.44v-6.36h8.44Z"/><path class="b" d="M325.34,258.17h6.36v8.44h-6.36v-8.44Z"/><path class="b" d="M100.79,496.71h-6.37v-8.45h6.37v8.45Z"/><path class="b" d="M125.26,392.55v-6.31h8.54v6.31h-8.54Z"/><path class="b" d="M133.66,425.73h-8.29v-6.53h8.29v6.53Z"/><path class="b" d="M94.33,27.16h6.37v8.45h-6.37v-8.45Z"/><path class="b" d="M125.83,72.21v8.36h-6.46v-8.36h6.46Z"/><path class="b" d="M343.32,170.63v-8.29h6.39v8.29h-6.39Z"/><path class="b" d="M349.39,258.2h6.42v8.35h-6.42v-8.35Z"/><path class="b" d="M451.16,380.54v-6.2h8.53v6.2h-8.53Z"/><path class="b" d="M445.36,162.19h6.32v8.4h-6.32v-8.4Z"/><path class="b" d="M451.79,80.71h-6.37v-8.45h6.37v8.45Z"/><path class="b" d="M100.18,150.6v-7.24h6.51v7.24h-6.51Z"/><path class="b" d="M451.8,143.24v7.3h-6.4v-7.3h6.4Z"/><path class="b" d="M106.25,470.53v-6.28h7.54v6.28h-7.54Z"/><path class="b" d="M113.84,419.2v6.39h-7.47v-6.39h7.47Z"/><path class="b" d="M106.86,194.19v7.41h-6.5v-7.41h6.5Z"/><path class="b" d="M466.82,386.28v6.39h-7.36v-6.39h7.36Z"/><path class="b" d="M106.16,392.62v-6.28h7.54v6.28h-7.54Z"/><path class="b" d="M106.37,374.2h7.3v6.4h-7.3v-6.4Z"/><path class="b" d="M355.86,143.19v7.41h-6.5v-7.41h6.5Z"/><path class="b" d="M445.47,200.13h6.28v7.54h-6.28v-7.54Z"/><path class="b" d="M349.47,392.04h6.19v7.54h-6.19v-7.54Z"/><path class="b" d="M459.34,329.17h7.36v6.45h-7.36v-6.45Z"/><path class="b" d="M106.25,341.53v-6.28h7.54v6.28h-7.54Z"/><path class="b" d="M363.25,482.53v-6.28h7.54v6.28h-7.54Z"/><path class="b" d="M496.69,258.72h-6.34v-7.54h6.34v7.54Z"/><path class="b" d="M113.82,278.28v6.39h-7.36v-6.39h7.36Z"/><path class="b" d="M349.72,303.69h-6.39v-7.36h6.39v7.36Z"/><path class="b" d="M113.81,182.73h-7.41v-6.5h7.41v6.5Z"/><path class="b" d="M106.49,54.06h7.18v6.54h-7.18v-6.54Z"/><path class="b" d="M113.78,15.7h-7.36v-6.45h7.36v6.45Z"/><path class="b" d="M119.87,503.34v6.28h-7.54v-6.28h7.54Z"/><path class="b" d="M112.25,443.53v-6.28h7.54v6.28h-7.54Z"/><path class="b" d="M337.35,194.18h6.34v7.42h-6.34v-7.42Z"/><path class="b" d="M112.31,245.65v-6.34h7.42v6.34h-7.42Z"/><path class="b" d="M112.16,233.53v-6.19h7.54v6.19h-7.54Z"/><path class="b" d="M112.34,207.17h7.36v6.45h-7.36v-6.45Z"/><path class="b" d="M112.34,125.17h7.36v6.45h-7.36v-6.45Z"/><path class="b" d="M119.96,92.35v6.19h-7.54v-6.19h7.54Z"/><path class="b" d="M119.35,451.18h6.34v7.42h-6.34v-7.42Z"/><path class="b" d="M331.32,156.6v-7.42h6.37v7.42h-6.37Z"/><path class="b" d="M484.38,47.04h6.28v7.54h-6.28v-7.54Z"/><path class="b" d="M125.83,194.22v7.36h-6.45v-7.36h6.45Z"/><path class="b" d="M370.82,407.23v6.34h-7.42v-6.34h7.42Z"/><path class="b" d="M363.43,66.17h7.36v6.36h-7.36v-6.36Z"/><path class="b" d="M337.86,451.19v7.41h-6.5v-7.41h6.5Z"/><path class="b" d="M94.32,252.63v-7.3h6.4v7.3h-6.4Z"/><path class="b" d="M337.8,496.27v7.42h-6.37v-7.42h6.37Z"/><path class="b" d="M325.35,200.18h6.34v7.42h-6.34v-7.42Z"/><path class="b" d="M490.44,143.15h6.34v7.54h-6.34v-7.54Z"/><path class="b" d="M370.3,150.66v-7.36h6.45v7.36h-6.45Z"/><path class="b" d="M74.29,54.57v-7.36h6.36v7.36h-6.36Z"/><path class="b" d="M466.76,182.68h-7.3v-6.4h7.3v6.4Z"/><path class="b" d="M74.29,503.57v-7.36h6.36v7.36h-6.36Z"/><path class="b" d="M376.32,252.6v-7.42h6.37v7.42h-6.37Z"/><path class="b" d="M376.27,207.69v-7.41h6.5v7.41h-6.5Z"/><path class="b" d="M68.38,296.04h6.28v7.54h-6.28v-7.54Z"/><path class="b" d="M382.38,496.04h6.28v7.54h-6.28v-7.54Z"/><path class="b" d="M319.26,303.54v-7.3h6.54v7.3h-6.54Z"/><path class="b" d="M68.27,399.69v-7.41h6.5v7.41h-6.5Z"/><path class="b" d="M459.31,131.59v-6.39h7.36v6.39h-7.36Z"/><path class="b" d="M133.27,503.69v-7.41h6.5v7.41h-6.5Z"/><path class="b" d="M466.96,41.35v6.19h-7.54v-6.19h7.54Z"/><path class="b" d="M133.26,258.54v-7.3h6.54v7.3h-6.54Z"/><path class="b" d="M61.28,111.56v-6.34h7.54v6.34h-7.54Z"/><path class="b" d="M145.83,194.22v7.36h-6.45v-7.36h6.45Z"/><path class="b" d="M382.29,156.57v-7.36h6.36v7.36h-6.36Z"/><path class="b" d="M145.35,451.18h6.34v7.42h-6.34v-7.42Z"/><path class="b" d="M61.49,188.06h7.18v6.54h-7.18v-6.54Z"/><path class="b" d="M68.81,341.23v6.34h-7.42v-6.34h7.42Z"/><path class="b" d="M151.86,149.19v7.41h-6.5v-7.41h6.5Z"/><path class="b" d="M151.83,98.22v7.36h-6.45v-7.36h6.45Z"/><path class="b" d="M388.65,9.84h-6.19V2.3h6.19v7.54Z"/><path class="b" d="M68.66,380.74h-7.3v-6.54h7.3v6.54Z"/><path class="b" d="M311.87,239.34v6.28h-7.53v-6.28h7.53Z"/><path class="b" d="M311.69,335.71h-7.36v-6.36h7.36v6.36Z"/><path class="b" d="M304.25,380.53v-6.28h7.53v6.28h-7.53Z"/><path class="b" d="M151.3,258.66v-7.36h6.45v7.36h-6.45Z"/><path class="b" d="M164.81,380.73h-7.41v-6.5h7.41v6.5Z"/><path class="b" d="M304.77,258.69h-6.34v-7.42h6.34v7.42Z"/><path class="b" d="M157.16,362.53v-6.19h7.54v6.19h-7.54Z"/><path class="b" d="M164.78,335.7h-7.36v-6.45h7.36v6.45Z"/><path class="b" d="M164.76,111.68h-7.3v-6.4h7.3v6.4Z"/><path class="b" d="M164.96,86.25v6.28h-7.54v-6.28h7.54Z"/><path class="b" d="M298.32,458.64v-7.3h6.4v7.3h-6.4Z"/><path class="b" d="M170.81,476.73h-7.41v-6.5h7.41v6.5Z"/><path class="b" d="M163.28,317.56v-6.34h7.54v6.34h-7.54Z"/><path class="b" d="M170.82,60.28v6.39h-7.36v-6.39h7.36Z"/><path class="b" d="M298.8,98.24v7.3h-6.4v-7.3h6.4Z"/><path class="b" d="M62.81,15.28v6.39h-7.36v-6.39h7.36Z"/><path class="b" d="M292.35,143.18h6.34v7.42h-6.34v-7.42Z"/><path class="b" d="M62.78,162.7h-7.36v-6.45h7.36v6.45Z"/><path class="b" d="M55.28,213.56v-6.33h7.54v6.33h-7.54Z"/><path class="b" d="M62.66,278.74h-7.3v-6.54h7.3v6.54Z"/><path class="b" d="M55.28,296.68v-6.39h7.47v6.39h-7.47Z"/><path class="b" d="M62.63,317.82h-7.18v-6.54h7.18v6.54Z"/><path class="b" d="M62.7,368.71h-7.36v-6.36h7.36v6.36Z"/><path class="b" d="M394.26,150.54v-7.3h6.54v7.3h-6.54Z"/><path class="b" d="M55.16,413.53v-6.19h7.54v6.19h-7.54Z"/><path class="b" d="M62.96,425.35v6.19h-7.54v-6.19h7.54Z"/><path class="b" d="M400.35,451.18h6.34v7.42h-6.34v-7.42Z"/><path class="b" d="M55.28,488.56v-6.33h7.54v6.33h-7.54Z"/><path class="b" d="M49.32,458.6v-7.42h6.37v7.42h-6.37Z"/><path class="b" d="M286.69,258.72h-6.34v-7.54h6.34v7.54Z"/><path class="b" d="M484.18,503.51v-7.18h6.54v7.18h-6.54Z"/><path class="b" d="M184.65,150.84h-6.19v-7.54h6.19v7.54Z"/><path class="b" d="M184.35,47.19h6.34v7.42h-6.34v-7.42Z"/><path class="b" d="M421.86,392.19v7.41h-6.5v-7.41h6.5Z"/><path class="b" d="M421.26,458.54v-7.3h6.54v7.3h-6.54Z"/><path class="b" d="M190.26,201.54v-7.3h6.54v7.3h-6.54Z"/><path class="b" d="M196.47,496.04h6.19v7.54h-6.19v-7.54Z"/><path class="b" d="M196.47,149.04h6.19v7.54h-6.19v-7.54Z"/><path class="b" d="M29.26,399.54v-7.3h6.54v7.3h-6.54Z"/><path class="b" d="M202.18,458.51v-7.18h6.54v7.18h-6.54Z"/><path class="b" d="M202.29,258.57v-7.36h6.36v7.36h-6.36Z"/><path class="b" d="M208.86,200.34v7.3h-6.54v-7.3h6.54Z"/><path class="b" d="M478.83,245.22v7.36h-6.45v-7.36h6.45Z"/><path class="b" d="M427.83,296.3v7.36h-6.36v-7.36h6.36Z"/><path class="b" d="M29.77,503.69h-6.34v-7.42h6.34v7.42Z"/><path class="b" d="M427.83,200.22v7.36h-6.45v-7.36h6.45Z"/><path class="b" d="M266.66,41.74h-7.3v-6.54h7.3v6.54Z"/><path class="b" d="M259.16,137.62v-6.28h7.54v6.28h-7.54Z"/><path class="b" d="M266.73,188.68h-7.42v-6.37h7.42v6.37Z"/><path class="b" d="M215.76,188.68h-7.3v-6.4h7.3v6.4Z"/><path class="b" d="M266.85,362.31v6.34h-7.54v-6.34h7.54Z"/><path class="b" d="M478.86,143.19v7.41h-6.5v-7.41h6.5Z"/><path class="b" d="M221.86,496.19v7.41h-6.5v-7.41h6.5Z"/><path class="b" d="M421.18,156.51v-7.18h6.54v7.18h-6.54Z"/><path class="b" d="M10.28,47.56v-6.34h7.54v6.34h-7.54Z"/><path class="b" d="M10.16,66.62v-6.28h7.54v6.28h-7.54Z"/><path class="b" d="M17.73,111.68h-7.42v-6.37h7.42v6.37Z"/><path class="b" d="M17.82,182.23v6.34h-7.42v-6.34h7.42Z"/><path class="b" d="M433.26,503.54v-7.3h6.54v7.3h-6.54Z"/><path class="b" d="M478.32,296.16h6.39v7.47h-6.39v-7.47Z"/><path class="b" d="M478.44,392.15h6.33v7.54h-6.33v-7.54Z"/><path class="b" d="M10.49,239.06h7.18v6.54h-7.18v-6.54Z"/><path class="b" d="M253.65,201.84h-6.19v-7.54h6.19v7.54Z"/><path class="b" d="M17.87,317.34v6.28h-7.54v-6.28h7.54Z"/><path class="b" d="M10.34,368.17h7.36v6.45h-7.36v-6.45Z"/><path class="b" d="M10.31,476.65v-6.34h7.42v6.34h-7.42Z"/><path class="b" d="M439.38,392.04h6.28v7.54h-6.28v-7.54Z"/><path class="b" d="M241.47,98.13h6.28v7.54h-6.28v-7.54Z"/><path class="b" d="M10.94,392.37v7.18h-6.54v-7.18h6.54Z"/><path class="b" d="M208.25,239.53v-6.28h7.54v6.28h-7.54Z"/><path class="b" d="M235.3,54.66v-7.36h6.45v7.36h-6.45Z"/><path class="b" d="M241.3,272.66v-6.35h6.44v6.35h-6.44Z"/><path class="b" d="M241.29,368.58v-6.36h6.36v6.36h-6.36Z"/><path class="b" d="M241.36,425.19h6.32v6.41h-6.32v-6.41Z"/><path class="b" d="M247.83,437.3v6.36h-6.36v-6.36h6.36Z"/><path class="b" d="M247.73,213.83h-6.25v-6.52h6.25v6.52Z"/><path class="b" d="M235.17,86.52v-6.19h6.54v6.19h-6.54Z"/><path class="b" d="M235.34,156.18h6.35v6.44h-6.35v-6.44Z"/><path class="b" d="M241.95,182.36v6.19h-6.54v-6.19h6.54Z"/><path class="b" d="M241.82,221.22v6.35h-6.44v-6.35h6.44Z"/><path class="b" d="M235.27,290.69v-6.41h6.5v6.41h-6.5Z"/><path class="b" d="M247.95,137.27v6.25h-6.52v-6.25h6.52Z"/><path class="b" d="M235.36,323.19h6.32v6.41h-6.32v-6.41Z"/><path class="b" d="M241.95,341.36v6.19h-6.54v-6.19h6.54Z"/><path class="b" d="M478.76,111.68h-6.32v-6.41h6.32v6.41Z"/><path class="b" d="M235.48,458.05h6.19v6.54h-6.19v-6.54Z"/><path class="b" d="M241.48,15.05h6.19v6.54h-6.19v-6.54Z"/><path class="b" d="M235.67,239.74h-6.3v-6.54h6.3v6.54Z"/><path class="b" d="M247.46,476.14h6.3v6.54h-6.3v-6.54Z"/><path class="b" d="M253.67,392.74h-6.3v-6.54h6.3v6.54Z"/><path class="b" d="M253.95,239.36v6.19h-6.54v-6.19h6.54Z"/><path class="b" d="M247.36,170.19h6.32v6.41h-6.32v-6.41Z"/><path class="b" d="M478.3,443.66v-6.35h6.44v6.35h-6.44Z"/><path class="b" d="M247.29,72.58v-6.36h6.36v6.36h-6.36Z"/><path class="b" d="M253.34,503.18h6.35v6.44h-6.35v-6.44Z"/><path class="b" d="M253.34,464.18h6.35v6.44h-6.35v-6.44Z"/><path class="b" d="M259.81,413.73h-6.41v-6.5h6.41v6.5Z"/><path class="b" d="M253.27,341.69v-6.41h6.5v6.41h-6.5Z"/><path class="b" d="M253.32,317.64v-6.32h6.41v6.32h-6.41Z"/><path class="b" d="M253.39,290.05h6.25v6.52h-6.25v-6.52Z"/><path class="b" d="M253.39,278.05h6.25v6.52h-6.25v-6.52Z"/><path class="b" d="M259.82,111.22v6.35h-6.44v-6.35h6.44Z"/><path class="b" d="M215.42,86.17h6.36v6.36h-6.36v-6.36Z"/><path class="b" d="M221.78,131.7h-6.35v-6.44h6.35v6.44Z"/><path class="b" d="M215.42,156.17h6.36v6.36h-6.36v-6.36Z"/><path class="b" d="M259.67,98.74h-6.3v-6.54h6.3v6.54Z"/><path class="b" d="M215.29,329.58v-6.36h6.36v6.36h-6.36Z"/><path class="b" d="M215.36,341.19h6.32v6.41h-6.32v-6.41Z"/><path class="b" d="M215.29,413.58v-6.36h6.36v6.36h-6.36Z"/><path class="b" d="M259.81,54.24v6.32h-6.41v-6.32h6.41Z"/><path class="b" d="M472.17,194.61v-6.25h6.52v6.25h-6.52Z"/><path class="b" d="M445.86,368.33v6.3h-6.54v-6.3h6.54Z"/><path class="b" d="M208.86,9.33v6.3h-6.54v-6.3h6.54Z"/><path class="b" d="M208.95,41.36v6.19h-6.54v-6.19h6.54Z"/><path class="b" d="M208.78,72.7h-6.35v-6.44h6.35v6.44Z"/><path class="b" d="M208.7,111.71h-6.36v-6.36h6.36v6.36Z"/><path class="b" d="M472.17,347.52v-6.19h6.54v6.19h-6.54Z"/><path class="b" d="M271.3,9.66V3.31h6.44v6.35h-6.44Z"/><path class="b" d="M202.17,278.52v-6.19h6.54v6.19h-6.54Z"/><path class="b" d="M202.27,296.69v-6.41h6.5v6.41h-6.5Z"/><path class="b" d="M208.81,311.24v6.32h-6.41v-6.32h6.41Z"/><path class="b" d="M208.73,335.83h-6.25v-6.52h6.25v6.52Z"/><path class="b" d="M202.31,356.15h6.41v6.5h-6.41v-6.5Z"/><path class="b" d="M208.86,386.33v6.3h-6.54v-6.3h6.54Z"/><path class="b" d="M208.95,419.27v6.25h-6.52v-6.25h6.52Z"/><path class="b" d="M280.86,503.33v6.3h-6.54v-6.3h6.54Z"/><path class="b" d="M208.76,482.68h-6.32v-6.41h6.32v6.41Z"/><path class="b" d="M274.48,464.05h6.19v6.54h-6.19v-6.54Z"/><path class="b" d="M202.81,86.24v6.32h-6.41v-6.32h6.41Z"/><path class="b" d="M280.83,407.3v6.36h-6.36v-6.36h6.36Z"/><path class="b" d="M202.95,176.27v6.25h-6.52v-6.25h6.52Z"/><path class="b" d="M196.32,443.64v-6.32h6.41v6.32h-6.41Z"/><path class="b" d="M280.78,341.7h-6.35v-6.44h6.35v6.44Z"/><path class="b" d="M196.81,125.24v6.32h-6.41v-6.32h6.41Z"/><path class="b" d="M280.73,317.83h-6.25v-6.52h6.25v6.52Z"/><path class="b" d="M196.64,227.83h-6.19v-6.54h6.19v6.54Z"/><path class="b" d="M196.86,239.33v6.3h-6.54v-6.3h6.54Z"/><path class="b" d="M196.78,278.7h-6.35v-6.44h6.35v6.44Z"/><path class="b" d="M274.29,296.58v-6.36h6.36v6.36h-6.36Z"/><path class="b" d="M478.26,182.54v-6.3h6.54v6.3h-6.54Z"/><path class="b" d="M196.73,380.83h-6.25v-6.52h6.25v6.52Z"/><path class="b" d="M280.82,278.22v6.35h-6.44v-6.35h6.44Z"/><path class="b" d="M190.64,15.83h-6.19v-6.54h6.19v6.54Z"/><path class="b" d="M274.31,111.15h6.41v6.5h-6.41v-6.5Z"/><path class="b" d="M190.83,66.3v6.36h-6.36v-6.36h6.36Z"/><path class="b" d="M190.67,111.74h-6.3v-6.54h6.3v6.54Z"/><path class="b" d="M184.17,296.52v-6.19h6.54v6.19h-6.54Z"/><path class="b" d="M190.81,317.24v6.32h-6.41v-6.32h6.41Z"/><path class="b" d="M190.86,419.33v6.3h-6.54v-6.3h6.54Z"/><path class="b" d="M184.34,458.18h6.35v6.44h-6.35v-6.44Z"/><path class="b" d="M190.78,482.7h-6.35v-6.44h6.35v6.44Z"/><path class="b" d="M178.29,86.58v-6.36h6.36v6.36h-6.36Z"/><path class="b" d="M280.81,98.73h-6.41v-6.5h6.41v6.5Z"/><path class="b" d="M178.46,176.14h6.3v6.54h-6.3v-6.54Z"/><path class="b" d="M184.95,335.36v6.19h-6.54v-6.19h6.54Z"/><path class="b" d="M184.64,368.83h-6.19v-6.54h6.19v6.54Z"/><path class="b" d="M178.39,386.05h6.25v6.52h-6.25v-6.52Z"/><path class="b" d="M280.95,54.36v6.19h-6.54v-6.19h6.54Z"/><path class="b" d="M472.26,380.54v-6.3h6.54v6.3h-6.54Z"/><path class="b" d="M286.86,362.33v6.3h-6.54v-6.3h6.54Z"/><path class="b" d="M280.17,188.52v-6.19h6.54v6.19h-6.54Z"/><path class="b" d="M490.81,464.73h-6.41v-6.5h6.41v6.5Z"/><path class="b" d="M280.34,131.18h6.35v6.44h-6.35v-6.44Z"/><path class="b" d="M280.46,35.14h6.3v6.54h-6.3v-6.54Z"/><path class="b" d="M286.29,335.58v-6.36h6.36v6.36h-6.36Z"/><path class="b" d="M490.85,323.19v6.41h-6.5v-6.41h6.5Z"/><path class="b" d="M292.26,476.54v-6.3h6.54v6.3h-6.54Z"/><path class="b" d="M298.95,425.27v6.25h-6.52v-6.25h6.52Z"/><path class="b" d="M298.78,392.7h-6.35v-6.44h6.35v6.44Z"/><path class="b" d="M466.32,21.64v-6.32h6.41v6.32h-6.41Z"/><path class="b" d="M292.32,233.64v-6.32h6.41v6.32h-6.41Z"/><path class="b" d="M298.95,176.36v6.19h-6.54v-6.19h6.54Z"/><path class="b" d="M298.85,80.19v6.41h-6.5v-6.41h6.5Z"/><path class="b" d="M484.27,239.69v-6.41h6.5v6.41h-6.5Z"/><path class="b" d="M298.95,60.27v6.25h-6.52v-6.25h6.52Z"/><path class="b" d="M298.83,15.3v6.36h-6.36v-6.36h6.36Z"/><path class="b" d="M298.31,362.15h6.41v6.5h-6.41v-6.5Z"/><path class="b" d="M298.3,317.66v-6.35h6.44v6.35h-6.44Z"/><path class="b" d="M304.95,284.36v6.19h-6.54v-6.19h6.54Z"/><path class="b" d="M298.27,272.69v-6.41h6.5v6.41h-6.5Z"/><path class="b" d="M298.27,213.69v-6.41h6.5v6.41h-6.5Z"/><path class="b" d="M484.32,213.64v-6.32h6.41v6.32h-6.41Z"/><path class="b" d="M490.95,156.27v6.25h-6.52v-6.25h6.52Z"/><path class="b" d="M157.95,54.36v6.19h-6.54v-6.19h6.54Z"/><path class="b" d="M157.86,131.33v6.3h-6.54v-6.3h6.54Z"/><path class="b" d="M151.46,182.14h6.3v6.54h-6.3v-6.54Z"/><path class="b" d="M298.27,47.69v-6.41h6.5v6.41h-6.5Z"/><path class="b" d="M151.32,296.64v-6.32h6.41v6.32h-6.41Z"/><path class="b" d="M157.67,470.74h-6.3v-6.54h6.3v6.54Z"/><path class="b" d="M151.83,15.3v6.36h-6.36v-6.36h6.36Z"/><path class="b" d="M145.39,41.05h6.25v6.52h-6.25v-6.52Z"/><path class="b" d="M466.46,156.14h6.3v6.54h-6.3v-6.54Z"/><path class="b" d="M318.78,9.7h-6.35V3.26h6.35v6.44Z"/><path class="b" d="M472.78,213.7h-6.35v-6.44h6.35v6.44Z"/><path class="b" d="M472.95,272.36v6.19h-6.54v-6.19h6.54Z"/><path class="b" d="M472.81,296.73h-6.41v-6.5h6.41v6.5Z"/><path class="b" d="M151.81,233.24v6.32h-6.41v-6.32h6.41Z"/><path class="b" d="M145.48,272.05h6.19v6.54h-6.19v-6.54Z"/><path class="b" d="M145.46,311.14h6.3v6.54h-6.3v-6.54Z"/><path class="b" d="M151.81,374.73h-6.41v-6.5h6.41v6.5Z"/><path class="b" d="M145.36,386.19h6.32v6.41h-6.32v-6.41Z"/><path class="b" d="M145.34,407.18h6.35v6.44h-6.35v-6.44Z"/><path class="b" d="M145.17,431.61v-6.25h6.52v6.25h-6.52Z"/><path class="b" d="M472.86,311.33v6.3h-6.54v-6.3h6.54Z"/><path class="b" d="M145.46,482.14h6.3v6.54h-6.3v-6.54Z"/><path class="b" d="M466.39,362.05h6.25v6.52h-6.25v-6.52Z"/><path class="b" d="M466.29,413.58v-6.36h6.36v6.36h-6.36Z"/><path class="b" d="M145.95,290.27v6.25h-6.52v-6.25h6.52Z"/><path class="b" d="M490.85,125.19v6.41h-6.5v-6.41h6.5Z"/><path class="b" d="M139.17,443.52v-6.19h6.54v6.19h-6.54Z"/><path class="b" d="M133.3,66.66v-6.35h6.44v6.35h-6.44Z"/><path class="b" d="M139.81,92.73h-6.41v-6.5h6.41v6.5Z"/><path class="b" d="M472.81,425.24v6.32h-6.41v-6.32h6.41Z"/><path class="b" d="M139.64,213.83h-6.19v-6.54h6.19v6.54Z"/><path class="b" d="M472.81,482.24v6.32h-6.41v-6.32h6.41Z"/><path class="b" d="M139.64,335.83h-6.19v-6.54h6.19v6.54Z"/><path class="b" d="M133.17,476.61v-6.25h6.52v6.25h-6.52Z"/><path class="b" d="M319.36,464.19h6.32v6.41h-6.32v-6.41Z"/><path class="b" d="M325.78,413.7h-6.35v-6.44h6.35v6.44Z"/><path class="b" d="M319.48,278.05h6.19v6.54h-6.19v-6.54Z"/><path class="b" d="M319.3,188.66v-6.35h6.44v6.35h-6.44Z"/><path class="b" d="M325.86,156.33v6.3h-6.54v-6.3h6.54Z"/><path class="b" d="M319.17,60.61v-6.25h6.52v6.25h-6.52Z"/><path class="b" d="M331.64,368.83h-6.19v-6.54h6.19v6.54Z"/><path class="b" d="M331.73,329.83h-6.25v-6.52h6.25v6.52Z"/><path class="b" d="M331.17,482.52v-6.19h6.54v6.19h-6.54Z"/><path class="b" d="M490.82,86.22v6.35h-6.44v-6.35h6.44Z"/><path class="b" d="M331.34,380.18h6.35v6.44h-6.35v-6.44Z"/><path class="b" d="M125.85,41.19v6.41h-6.5v-6.41h6.5Z"/><path class="b" d="M331.17,347.61v-6.25h6.52v6.25h-6.52Z"/><path class="b" d="M125.95,156.36v6.19h-6.54v-6.19h6.54Z"/><path class="b" d="M331.17,245.52v-6.19h6.54v6.19h-6.54Z"/><path class="b" d="M119.36,290.19h6.32v6.41h-6.32v-6.41Z"/><path class="b" d="M119.32,323.64v-6.32h6.41v6.32h-6.41Z"/><path class="b" d="M337.76,176.68h-6.32v-6.41h6.32v6.41Z"/><path class="b" d="M337.95,125.36v6.19h-6.54v-6.19h6.54Z"/><path class="b" d="M125.81,488.73h-6.41v-6.5h6.41v6.5Z"/><path class="b" d="M490.46,368.14h6.3v6.54h-6.3v-6.54Z"/><path class="b" d="M337.85,105.19v6.41h-6.5v-6.41h6.5Z"/><path class="b" d="M337.95,86.36v6.19h-6.54v-6.19h6.54Z"/><path class="b" d="M331.39,66.05h6.25v6.52h-6.25v-6.52Z"/><path class="b" d="M337.7,47.71h-6.36v-6.36h6.36v6.36Z"/><path class="b" d="M337.36,425.19h6.32v6.41h-6.32v-6.41Z"/><path class="b" d="M490.48,278.05h6.19v6.54h-6.19v-6.54Z"/><path class="b" d="M337.26,21.54v-6.3h6.54v6.3h-6.54Z"/><path class="b" d="M349.67,470.74h-6.3v-6.54h6.3v6.54Z"/><path class="b" d="M343.31,407.15h6.41v6.5h-6.41v-6.5Z"/><path class="b" d="M349.83,356.3v6.36h-6.36v-6.36h6.36Z"/><path class="b" d="M349.83,317.3v6.36h-6.36v-6.36h6.36Z"/><path class="b" d="M343.36,278.19h6.32v6.41h-6.32v-6.41Z"/><path class="b" d="M349.81,221.24v6.32h-6.41v-6.32h6.41Z"/><path class="b" d="M343.48,54.05h6.19v6.54h-6.19v-6.54Z"/><path class="b" d="M349.34,35.18h6.35v6.44h-6.35v-6.44Z"/><path class="b" d="M359.76,9.68h-6.32V3.28h6.32v6.41Z"/><path class="b" d="M490.42,188.17h6.36v6.36h-6.36v-6.36Z"/><path class="b" d="M451.83,9.3v6.36h-6.36v-6.36h6.36Z"/><path class="b" d="M451.86,54.33v6.3h-6.54v-6.3h6.54Z"/><path class="b" d="M106.82,105.22v6.35h-6.44v-6.35h6.44Z"/><path class="b" d="M451.83,105.3v6.36h-6.36v-6.36h6.36Z"/><path class="b" d="M445.36,188.19h6.32v6.41h-6.32v-6.41Z"/><path class="b" d="M106.83,266.3v6.36h-6.36v-6.36h6.36Z"/><path class="b" d="M106.82,362.22v6.35h-6.44v-6.35h6.44Z"/><path class="b" d="M451.73,245.83h-6.25v-6.52h6.25v6.52Z"/><path class="b" d="M100.81,86.73h-6.41v-6.5h6.41v6.5Z"/><path class="b" d="M94.3,131.66v-6.35h6.44v6.35h-6.44Z"/><path class="b" d="M94.17,162.52v-6.19h6.54v6.19h-6.54Z"/><path class="b" d="M94.39,207.05h6.25v6.52h-6.25v-6.52Z"/><path class="b" d="M100.82,227.22v6.35h-6.44v-6.35h6.44Z"/><path class="b" d="M376.82,464.22v6.35h-6.44v-6.35h6.44Z"/><path class="b" d="M94.17,296.61v-6.25h6.52v6.25h-6.52Z"/><path class="b" d="M94.34,329.18h6.35v6.44h-6.35v-6.44Z"/><path class="b" d="M100.73,443.83h-6.25v-6.52h6.25v6.52Z"/><path class="b" d="M376.64,431.83h-6.19v-6.54h6.19v6.54Z"/><path class="b" d="M88.32,15.64v-6.32h6.41v6.32h-6.41Z"/><path class="b" d="M94.95,66.27v6.25h-6.52v-6.25h6.52Z"/><path class="b" d="M94.81,182.73h-6.41v-6.5h6.41v6.5Z"/><path class="b" d="M88.32,317.64v-6.32h6.41v6.32h-6.41Z"/><path class="b" d="M94.85,356.19v6.41h-6.5v-6.41h6.5Z"/><path class="b" d="M88.17,392.52v-6.19h6.54v6.19h-6.54Z"/><path class="b" d="M376.67,296.74h-6.3v-6.54h6.3v6.54Z"/><path class="b" d="M88.46,419.14h6.3v6.54h-6.3v-6.54Z"/><path class="b" d="M88.27,482.69v-6.41h6.5v6.41h-6.5Z"/><path class="b" d="M376.83,266.3v6.36h-6.36v-6.36h6.36Z"/><path class="b" d="M490.27,111.69v-6.41h6.5v6.41h-6.5Z"/><path class="b" d="M370.27,233.69v-6.41h6.5v6.41h-6.5Z"/><path class="b" d="M376.81,60.73h-6.41v-6.5h6.41v6.5Z"/><path class="b" d="M370.42,15.17h6.36v6.36h-6.36v-6.36Z"/><path class="b" d="M451.64,425.83h-6.19v-6.54h6.19v6.54Z"/><path class="b" d="M376.32,392.64v-6.32h6.41v6.32h-6.41Z"/><path class="b" d="M80.95,86.27v6.25h-6.52v-6.25h6.52Z"/><path class="b" d="M74.17,131.61v-6.25h6.52v6.25h-6.52Z"/><path class="b" d="M80.85,156.19v6.41h-6.5v-6.41h6.5Z"/><path class="b" d="M80.83,207.3v6.36h-6.36v-6.36h6.36Z"/><path class="b" d="M74.34,233.18h6.35v6.44h-6.35v-6.44Z"/><path class="b" d="M74.17,329.61v-6.25h6.52v6.25h-6.52Z"/><path class="b" d="M376.17,362.61v-6.25h6.52v6.25h-6.52Z"/><path class="b" d="M80.81,464.73h-6.41v-6.5h6.41v6.5Z"/><path class="b" d="M376.48,335.05h6.19v6.54h-6.19v-6.54Z"/><path class="b" d="M382.85,311.19v6.41h-6.5v-6.41h6.5Z"/><path class="b" d="M74.86,176.33v6.3h-6.54v-6.3h6.54Z"/><path class="b" d="M376.29,188.58v-6.36h6.36v6.36h-6.36Z"/><path class="b" d="M376.42,35.17h6.36v6.36h-6.36v-6.36Z"/><path class="b" d="M382.26,419.54v-6.3h6.54v6.3h-6.54Z"/><path class="b" d="M68.34,437.18h6.35v6.44h-6.35v-6.44Z"/><path class="b" d="M388.81,374.73h-6.41v-6.5h6.41v6.5Z"/><path class="b" d="M382.29,227.58v-6.36h6.36v6.36h-6.36Z"/><path class="b" d="M382.31,125.15h6.41v6.5h-6.41v-6.5Z"/><path class="b" d="M382.46,105.14h6.3v6.54h-6.3v-6.54Z"/><path class="b" d="M388.83,86.3v6.36h-6.36v-6.36h6.36Z"/><path class="b" d="M388.27,341.69v-6.41h6.5v6.41h-6.5Z"/><path class="b" d="M394.67,296.74h-6.3v-6.54h6.3v6.54Z"/><path class="b" d="M394.95,266.27v6.25h-6.52v-6.25h6.52Z"/><path class="b" d="M388.39,182.05h6.25v6.52h-6.25v-6.52Z"/><path class="b" d="M394.48,470.05h6.19v6.54h-6.19v-6.54Z"/><path class="b" d="M451.7,470.71h-6.36v-6.36h6.36v6.36Z"/><path class="b" d="M400.64,380.83h-6.19v-6.54h6.19v6.54Z"/><path class="b" d="M400.95,311.27v6.25h-6.52v-6.25h6.52Z"/><path class="b" d="M394.3,245.66v-6.35h6.44v6.35h-6.44Z"/><path class="b" d="M394.26,213.54v-6.3h6.54v6.3h-6.54Z"/><path class="b" d="M400.73,66.83h-6.25v-6.52h6.25v6.52Z"/><path class="b" d="M406.78,509.7h-6.35v-6.44h6.35v6.44Z"/><path class="b" d="M406.67,431.74h-6.3v-6.54h6.3v6.54Z"/><path class="b" d="M55.95,41.36v6.19h-6.54v-6.19h6.54Z"/><path class="b" d="M49.39,125.05h6.25v6.52h-6.25v-6.52Z"/><path class="b" d="M55.76,182.68h-6.32v-6.41h6.32v6.41Z"/><path class="b" d="M406.81,362.24v6.32h-6.41v-6.32h6.41Z"/><path class="b" d="M55.85,329.19v6.41h-6.5v-6.41h6.5Z"/><path class="b" d="M55.83,386.3v6.36h-6.36v-6.36h6.36Z"/><path class="b" d="M406.83,335.3v6.36h-6.36v-6.36h6.36Z"/><path class="b" d="M406.64,296.83h-6.19v-6.54h6.19v6.54Z"/><path class="b" d="M49.78,380.7h-6.35v-6.44h6.35v6.44Z"/><path class="b" d="M406.95,111.36v6.19h-6.54v-6.19h6.54Z"/><path class="b" d="M400.29,98.58v-6.36h6.36v6.36h-6.36Z"/><path class="b" d="M400.17,47.61v-6.25h6.52v6.25h-6.52Z"/><path class="b" d="M406.95,15.36v6.19h-6.54v-6.19h6.54Z"/><path class="b" d="M451.86,482.33v6.3h-6.54v-6.3h6.54Z"/><path class="b" d="M439.36,35.19h6.32v6.41h-6.32v-6.41Z"/><path class="b" d="M439.17,290.61v-6.25h6.52v6.25h-6.52Z"/><path class="b" d="M445.81,323.24v6.32h-6.41v-6.32h6.41Z"/><path class="b" d="M421.95,419.27v6.25h-6.52v-6.25h6.52Z"/><path class="b" d="M421.83,341.3v6.36h-6.36v-6.36h6.36Z"/><path class="b" d="M415.17,278.61v-6.25h6.52v6.25h-6.52Z"/><path class="b" d="M421.86,80.33v6.3h-6.54v-6.3h6.54Z"/><path class="b" d="M421.95,9.36v6.19h-6.54v-6.19h6.54Z"/><path class="b" d="M35.95,35.36v6.19h-6.54v-6.19h6.54Z"/><path class="b" d="M35.67,290.74h-6.3v-6.54h6.3v6.54Z"/><path class="b" d="M427.95,470.36v6.19h-6.54v-6.19h6.54Z"/><path class="b" d="M35.83,323.3v6.36h-6.36v-6.36h6.36Z"/><path class="b" d="M29.39,368.05h6.25v6.52h-6.25v-6.52Z"/><path class="b" d="M427.86,368.33v6.3h-6.54v-6.3h6.54Z"/><path class="b" d="M427.64,323.83h-6.19v-6.54h6.19v6.54Z"/><path class="b" d="M23.17,27.61v-6.25h6.52v6.25h-6.52Z"/><path class="b" d="M29.86,86.33v6.3h-6.54v-6.3h6.54Z"/><path class="b" d="M23.17,131.52v-6.19h6.54v6.19h-6.54Z"/><path class="b" d="M23.46,170.14h6.3v6.54h-6.3v-6.54Z"/><path class="b" d="M29.64,233.83h-6.19v-6.54h6.19v6.54Z"/><path class="b" d="M29.64,272.83h-6.19v-6.54h6.19v6.54Z"/><path class="b" d="M23.17,347.52v-6.19h6.54v6.19h-6.54Z"/><path class="b" d="M29.78,413.7h-6.35v-6.44h6.35v6.44Z"/><path class="b" d="M23.29,437.58v-6.36h6.36v6.36h-6.36Z"/><path class="b" d="M421.32,245.64v-6.32h6.41v6.32h-6.41Z"/><path class="b" d="M427.73,188.83h-6.25v-6.52h6.25v6.52Z"/><path class="b" d="M17.31,356.15h6.41v6.5h-6.41v-6.5Z"/><path class="b" d="M17.48,380.05h6.19v6.54h-6.19v-6.54Z"/><path class="b" d="M427.76,111.68h-6.32v-6.41h6.32v6.41Z"/><path class="b" d="M427.76,66.68h-6.32v-6.41h6.32v6.41Z"/><path class="b" d="M427.7,47.71h-6.36v-6.36h6.36v6.36Z"/><path class="b" d="M427.46,380.14h6.3v6.54h-6.3v-6.54Z"/><path class="b" d="M433.76,362.68h-6.32v-6.41h6.32v6.41Z"/><path class="b" d="M433.26,437.54v-6.3h6.54v6.3h-6.54Z"/><path class="b" d="M439.78,413.7h-6.35v-6.44h6.35v6.44Z"/><path class="b" d="M439.67,347.74h-6.3v-6.54h6.3v6.54Z"/><path class="b" d="M433.42,266.17h6.36v6.36h-6.36v-6.36Z"/><path class="b" d="M433.17,233.61v-6.25h6.52v6.25h-6.52Z"/><path class="b" d="M433.17,176.61v-6.25h6.52v6.25h-6.52Z"/><path class="b" d="M439.95,125.27v6.25h-6.52v-6.25h6.52Z"/><path class="b" d="M10.95,9.36v6.19h-6.54v-6.19h6.54Z"/><path class="b" d="M4.34,80.18h6.35v6.44h-6.35v-6.44Z"/><path class="b" d="M4.34,272.18h6.35v6.44h-6.35v-6.44Z"/><path class="b" d="M4.17,347.52v-6.19h6.54v6.19h-6.54Z"/><path class="b" d="M433.26,92.54v-6.3h6.54v6.3h-6.54Z"/><path class="b" d="M4.26,425.54v-6.3h6.54v6.3h-6.54Z"/><path class="b" d="M439.83,21.3v6.36h-6.36v-6.36h6.36Z"/></svg>